<svg width="130" height="32" viewBox="0 0 130 32" fill="none" xmlns="http://www.w3.org/2000/svg">
<path d="M4.75472 27.7049C5.30784 27.5488 5.72821 27.3704 5.72821 27.3035C5.72821 27.2588 5.48484 26.7459 5.19721 26.166C4.68834 25.1847 4.66622 25.0732 4.66622 23.8911C4.73259 20.6572 5.08659 19.1852 6.30346 15.7952C7.91857 11.29 9.48943 8.01148 11.3479 5.20132C13.6268 1.74437 15.3525 0.00474685 16.5251 0.00474685C16.8349 0.00474685 16.9897 0.116261 17.4986 0.696136C17.5871 0.80765 17.8305 1.05298 18.0517 1.25371C18.3172 1.49904 18.4721 1.76667 18.4721 1.9897C18.4721 2.43576 17.7862 3.59551 15.8614 6.45028C12.0117 12.2044 9.62218 17.2003 8.42744 23.4005C8.16194 24.4041 7.74157 26.9466 7.78582 27.0135C7.83007 27.0358 8.56019 26.9689 9.42306 26.8351C11.547 26.5229 17.1225 26.7236 18.8925 26.6121C19.1137 26.5898 20.1536 26.8128 20.3748 26.9912C20.6403 27.1919 20.574 27.6603 20.3085 27.7272C20.1094 27.7718 20.0651 27.8833 20.1094 28.2179C20.22 29.0208 20.0651 29.0654 17.8747 29.3553C14.7109 29.7791 13.2949 29.5783 9.60006 30.2028C7.09995 30.6266 4.95384 31.0726 2.98473 31.6079C1.25899 32.0763 0.528874 32.1209 0.219126 31.764C-0.0906216 31.4295 -0.0684968 31.0726 0.263376 30.7827C0.41825 30.6489 0.506749 30.4705 0.462499 30.4036C0.41825 30.3143 0.440374 30.2697 0.528874 30.2697C0.617373 30.2697 0.639498 30.1582 0.595248 30.0021C0.396125 29.3999 1.94486 28.5301 4.75472 27.7049ZM18.8482 27.6826C18.7155 27.7049 18.8261 27.7495 19.0916 27.7495C19.335 27.7495 19.4456 27.7049 19.3129 27.6826C19.1801 27.638 18.981 27.638 18.8482 27.6826ZM18.6491 27.7495C18.4057 27.7718 18.6049 27.7941 19.0695 27.7941C19.5562 27.7941 18.4279 27.5711 19.512 27.7495C19.2686 27.7049 18.8704 27.7049 18.6491 27.7495ZM14.1356 28.0841C13.3392 28.1956 13.6268 28.1956 15.5959 28.151C16.9676 28.1287 19.9102 28.3517 19.2022 28.2179C18.5164 28.0841 19.1137 28.151 19.2022 28.151C19.3571 28.1733 19.3571 28.1287 19.2465 28.0171C19.0474 27.8164 15.4631 27.9056 14.1356 28.0841ZM12.3657 28.2848C12.2108 28.3071 12.3214 28.3517 12.609 28.3517C12.8967 28.3517 13.0294 28.3071 12.8967 28.2848C12.786 28.2402 12.5427 28.2402 12.3657 28.2848ZM7.67519 19.1629C7.71944 19.0291 7.78582 18.8061 7.78582 18.6945C7.78582 18.583 7.74157 18.6053 7.67519 18.7615C7.60882 18.9176 7.54245 19.1183 7.54245 19.2298C7.54245 19.3636 7.5867 19.3413 7.67519 19.1629ZM16.8791 2.01201C15.5074 3.484 13.0073 7.14166 11.5249 9.81801C10.3965 11.8922 8.33894 16.4643 8.33894 16.9103C8.33894 17.0887 8.44956 16.8657 9.06906 15.3937C11.0824 10.7101 12.963 7.4316 15.7729 3.68472C17.3437 1.58825 17.5429 1.29831 16.8791 2.01201ZM15.9056 2.34655C15.2198 3.10485 13.848 4.88908 13.0958 6.04883C12.6754 6.69561 12.2772 7.25318 12.2329 7.34239C12.1665 7.4093 11.7683 8.10069 11.3479 8.85899C9.00268 13.0519 6.74595 18.8507 6.3477 22.999C6.30346 23.3335 6.48045 22.8429 6.7902 20.4565C7.09995 18.0478 7.45395 18.1593 7.71944 17.4233C9.68855 12.0929 12.078 7.54312 14.9985 3.68472C16.2596 2.03431 16.4366 1.76667 15.9056 2.34655ZM6.41408 19.5644C6.36983 19.7874 6.54683 19.3636 6.81233 18.6276C7.0557 17.8916 7.4982 16.7096 7.76369 16.0182C8.80356 13.208 10.5957 9.41656 11.9232 7.29779C12.2993 6.67331 12.5427 6.20494 12.4763 6.24955C12.2108 6.42797 10.4187 9.59498 9.46731 11.6022C8.25044 14.1894 6.65745 18.3377 6.41408 19.5644ZM6.21496 20.2334C6.19283 20.3673 6.23708 20.4565 6.28133 20.4119C6.32558 20.3673 6.32558 20.2558 6.28133 20.1442C6.23708 20.055 6.21496 20.0773 6.21496 20.2334Z" fill="#785B06"/>
<path d="M28.96 15.9736C29.5573 15.416 29.4688 15.6168 28.1635 17.6686C26.1722 20.7687 24.5129 22.8875 23.6279 23.4897C23.0969 23.8465 22.6765 23.7573 21.9907 23.1328C21.1942 22.4414 20.9508 21.8393 20.9508 20.6349V19.6982L19.6454 21.014C18.3843 22.3076 17.5214 22.9098 16.9462 22.9098C16.6143 22.9098 15.8842 22.5529 15.8842 22.3745C15.8842 22.3299 15.7072 22.1961 15.486 22.1069C14.9328 21.8616 14.424 21.1479 14.247 20.3227C13.9815 18.9622 14.7558 16.442 16.0391 14.5016C17.5436 12.2267 20.0879 10.3979 21.7694 10.3979C22.765 10.3979 22.9641 10.5094 23.9819 11.5799C24.8226 12.4497 25.066 12.8958 24.9111 13.2973C24.8448 13.4311 24.9333 13.6095 25.1545 13.7879C25.3536 13.944 25.4864 14.1894 25.4864 14.3901C25.4864 14.5908 25.0881 15.6391 24.6014 16.7096C23.2518 19.6982 22.942 20.568 22.8314 21.5716C22.7871 22.0846 22.765 22.5306 22.7871 22.5752C22.8978 22.6645 23.5394 22.1961 24.2695 21.5047C24.6456 21.1256 25.8404 19.6313 26.9245 18.1593C28.0086 16.7096 28.9379 15.5052 29.0042 15.5052C29.0485 15.5052 28.9821 15.706 28.8051 15.9513L28.5175 16.3751L28.96 15.9736ZM23.6058 16.3751C23.6058 16.3081 23.4951 16.4643 23.3624 16.7096C23.2075 16.9772 23.0969 17.2449 23.0969 17.3341C23.0969 17.401 23.2075 17.2449 23.3624 16.9995C23.4951 16.7319 23.6058 16.4643 23.6058 16.3751ZM17.6984 14.7023C17.4772 14.8808 17.1453 15.3714 17.2559 15.3714C17.2781 15.3714 17.4329 15.1707 17.6099 14.9477C17.8091 14.6577 17.8533 14.5685 17.6984 14.7023ZM15.3532 19.609C15.3532 19.7651 15.5302 19.3636 15.7293 18.7392C15.9284 18.1147 16.3488 17.111 16.6364 16.5535C16.9462 15.9736 17.1011 15.5721 17.0126 15.6391C16.5922 15.9959 15.3532 18.9845 15.3532 19.609ZM15.9948 18.7169C15.5523 20.0104 15.7293 19.7874 16.3488 18.2931C16.6586 17.4902 17.1232 16.5312 17.3666 16.152C17.6099 15.7506 17.9861 15.193 18.2073 14.9031C18.4949 14.5239 18.5171 14.4347 18.3179 14.6354C17.6542 15.193 16.5037 17.2449 15.9948 18.7169ZM21.1057 17.9586C21.2605 17.7578 21.2605 17.7355 21.0614 17.9139C20.9287 18.0255 20.818 18.1147 20.818 18.1593C20.818 18.2708 20.9287 18.1816 21.1057 17.9586ZM17.9861 20.2334C19.4463 19.0514 23.4951 13.721 23.4951 13.0073C23.4951 12.7174 23.0084 12.8289 21.9464 13.3642C20.8623 13.9217 19.6897 15.0146 18.8268 16.2412C17.9639 17.4902 16.8577 19.8097 16.7249 20.6126L16.6364 21.2148L17.0347 20.9694C17.2338 20.8356 17.6763 20.5011 17.9861 20.2334ZM21.9685 19.9212C22.0128 19.8766 22.0128 19.7428 21.9685 19.6536C21.9464 19.5421 21.9022 19.5867 21.9022 19.7428C21.9022 19.8766 21.9243 19.9658 21.9685 19.9212ZM22.057 19.2744C22.1013 19.2298 22.2783 18.8061 22.4774 18.2931C22.8535 17.3118 22.8093 17.0664 22.4331 17.9586C22.1898 18.5607 21.9464 19.3859 22.057 19.2744ZM22.5659 18.6722C22.5659 18.7392 22.6101 18.7169 22.6986 18.6053C22.765 18.4938 22.8093 18.3377 22.8093 18.2708C22.8093 18.2039 22.765 18.2262 22.6986 18.3377C22.6101 18.4492 22.5659 18.6053 22.5659 18.6722ZM24.7341 21.9954C24.7784 21.9285 24.7341 21.8839 24.6235 21.8839C24.5129 21.8839 24.4686 21.9285 24.5129 21.9954C24.535 22.04 24.6014 22.1069 24.6235 22.1069C24.6456 22.1069 24.712 22.04 24.7341 21.9954ZM24.9775 21.4601C25.1324 21.2594 25.1324 21.2371 24.9333 21.4155C24.8005 21.5047 24.6899 21.6162 24.6899 21.6385C24.6899 21.75 24.8005 21.6831 24.9775 21.4601ZM27.7652 17.5571C27.9422 17.3564 27.9422 17.3341 27.721 17.5125C27.4997 17.6909 27.4334 17.8024 27.544 17.8024C27.5661 17.8024 27.6767 17.6909 27.7652 17.5571ZM28.429 16.6427C28.606 16.3974 28.606 16.3974 28.3847 16.5758C28.2741 16.665 28.1635 16.8211 28.1635 16.888C28.1635 16.9772 28.1856 16.9995 28.1856 16.9772C28.2077 16.9549 28.3184 16.7988 28.429 16.6427Z" fill="#785B06"/>
<path d="M39.0161 13.944C38.8833 13.5649 39.1709 13.3642 40.3657 13.0073C40.8745 12.8735 41.3613 12.7174 41.4498 12.6951C41.5383 12.6728 41.8259 12.2267 42.0914 11.7361C43.2419 9.61728 44.4588 7.63233 45.5429 6.11573L46.6713 4.48762L45.5208 4.3315C44.0826 4.10848 42.7552 3.5063 42.3127 2.81491C42.0472 2.41346 42.0029 2.23503 42.0914 1.67746C42.1578 0.986073 42.2463 0.517713 42.2905 0.383897C42.3127 0.361593 42.3127 0.272383 42.3127 0.227775C42.2684 0.00474685 43.0428 -0.0175544 44.6579 0.18317C46.8925 0.450806 50.9856 0.450806 54.0167 0.18317C56.9814 -0.106767 61.4285 -0.0398583 62.2029 0.294684C62.8003 0.562321 63.0879 0.986073 63.1542 1.72207C63.2206 2.70339 63.1321 2.7703 60.8754 2.85952C59.7913 2.90412 58.154 3.06024 57.2248 3.21636C56.3177 3.37248 54.4149 3.66242 52.999 3.88545C51.583 4.08617 50.4103 4.2869 50.3882 4.3092C50.3661 4.3315 49.9457 5.0898 49.4369 5.98192C48.9501 6.85173 47.9102 8.59135 47.1359 9.81801C46.3836 11.0447 45.7641 12.1152 45.7641 12.1821C45.7641 12.2713 47.0695 12.3828 48.8616 12.4497C51.8263 12.5836 52.5565 12.6951 52.5565 13.0296C52.5565 13.1188 51.937 13.1634 51.0741 13.1634C50.167 13.1634 48.6182 13.2973 47.2244 13.498C45.2995 13.7879 44.857 13.8994 44.6579 14.1225C44.3481 14.5016 42.7109 17.8024 41.9587 19.5644C40.8303 22.1961 39.901 25.3854 39.901 26.5898C39.8789 27.0581 39.9674 27.1027 40.4542 26.8797C40.6754 26.7905 40.8745 26.7905 41.1179 26.8797C41.4277 26.9912 41.4719 27.0581 41.3834 27.3258C41.0958 28.0841 39.7241 28.5078 39.2594 27.9725C39.1267 27.8164 38.9497 27.7049 38.8833 27.7049C38.5514 27.7049 37.9762 27.0804 37.6664 26.4336C36.9142 24.7832 37.5779 21.3709 39.5028 16.9549C39.9453 15.9736 40.2993 15.1484 40.2993 15.1038C40.2993 15.0815 40.1887 15.0592 40.078 15.0592C39.9674 15.0592 39.8347 14.9477 39.7904 14.8139C39.6798 14.5239 39.4143 14.234 39.2373 14.234C39.1709 14.234 39.0603 14.1225 39.0161 13.944ZM54.9017 2.05661C56.1407 1.90049 56.738 1.76667 56.2292 1.81128C54.8353 1.90049 51.76 2.27964 51.1626 2.41346C50.2334 2.61418 52.4016 2.41346 54.9017 2.05661ZM58.0434 1.69977C58.3753 1.69977 58.508 1.67746 58.331 1.63286C58.1762 1.61055 57.9107 1.61055 57.7337 1.63286C57.5788 1.67746 57.7115 1.69977 58.0434 1.69977ZM51.76 1.78898C50.4325 1.9451 50.344 1.9674 51.0741 1.9897C51.5387 1.9897 52.3131 1.9451 52.7998 1.87819C53.2866 1.81128 54.2158 1.67746 54.8796 1.58825C55.5212 1.49904 56.8708 1.38753 57.8664 1.34292C59.4373 1.25371 59.5479 1.23141 58.5523 1.2091C57.5124 1.2091 56.2513 1.29831 51.76 1.78898ZM39.8347 19.0068C39.7904 18.9399 39.0824 20.8356 39.1046 21.0363C39.1046 21.1033 39.2816 20.7018 39.5028 20.0996C39.7241 19.5198 39.8789 19.0291 39.8347 19.0068ZM38.8833 21.6385C38.7948 21.9062 38.7063 22.1961 38.7063 22.3076C38.7063 22.4191 38.7948 22.3076 38.8833 22.04C38.9939 21.7946 39.0603 21.4824 39.0603 21.3709C39.0603 21.2594 38.9939 21.3932 38.8833 21.6385ZM38.5514 22.8429C38.4187 23.3112 38.4187 23.6681 38.5514 23.3335C38.6178 23.1774 38.6621 22.9321 38.6621 22.776C38.6621 22.5752 38.6399 22.5752 38.5514 22.8429ZM39.4364 22.9544C39.4807 22.9098 39.4807 22.7983 39.4364 22.6868C39.3922 22.5975 39.3701 22.6199 39.3701 22.776C39.3701 22.9098 39.3922 22.999 39.4364 22.9544ZM48.928 4.48762C48.9059 4.44302 48.6625 4.73296 48.4191 5.13441C48.1757 5.51356 47.4235 6.69561 46.7376 7.74384C45.4986 9.68419 44.0163 12.1375 44.0163 12.2713C44.0163 12.4944 44.1711 12.2936 44.6358 11.4461C45.0783 10.6432 46.0296 9.14892 48.2642 5.64737C48.6625 5.0452 48.9501 4.50993 48.928 4.48762ZM44.4366 1.81128C44.5915 1.9451 46.0739 2.10122 47.2907 2.10122H48.6182L47.6226 2.01201C45.9854 1.83358 44.3924 1.74437 44.4366 1.81128ZM45.7641 2.54728C46.2288 2.63649 48.2421 2.7257 48.1536 2.63649C48.1094 2.59188 47.4677 2.54728 46.6934 2.50267C45.919 2.48037 45.4986 2.48037 45.7641 2.54728ZM47.8217 4.88907C47.9545 4.68835 47.9987 4.57683 47.9102 4.62144C47.7554 4.71065 47.4456 5.22362 47.5341 5.22362C47.5784 5.22362 47.7111 5.0675 47.8217 4.88907ZM43.5738 11.3792C43.4853 11.5799 43.5074 11.5799 43.6401 11.4461C43.7286 11.3569 43.7729 11.2454 43.7286 11.2231C43.6844 11.1785 43.618 11.2454 43.5738 11.3792ZM48.4634 4.42072C48.2421 4.42072 43.4853 11.8922 43.4853 12.249C43.4853 12.5167 43.6401 12.2936 44.3039 11.1116C44.9013 10.041 46.9146 6.87403 48.1979 5.00059C48.397 4.68835 48.5297 4.42072 48.4634 4.42072ZM42.91 14.4124C42.6667 14.1894 39.4586 21.6831 39.5028 22.3522C39.5028 22.4414 39.6577 22.0846 39.8347 21.5716C40.0117 21.0587 40.3878 20.0996 40.6533 19.4305C40.9188 18.7615 41.5383 17.3787 42.0472 16.3527C42.556 15.3268 42.9543 14.457 42.91 14.4124ZM41.6932 14.8808C41.6268 15.0592 41.6489 15.0815 41.7817 14.9477C41.8702 14.8585 41.9144 14.7469 41.8702 14.7023C41.8259 14.68 41.7374 14.7469 41.6932 14.8808ZM41.2949 15.6837C41.2285 15.8844 41.2507 15.8844 41.3834 15.7506C41.4719 15.6614 41.494 15.5498 41.4719 15.5275C41.4277 15.4829 41.3392 15.5498 41.2949 15.6837ZM40.963 16.3974C40.8082 16.665 40.6975 16.9326 40.6975 16.9995C40.6975 17.0664 40.8082 16.9326 40.963 16.665C41.0958 16.3974 41.2064 16.1297 41.2064 16.0628C41.2064 15.9959 41.0958 16.1297 40.963 16.3974ZM40.5648 17.2672C40.4763 17.3118 40.432 17.401 40.432 17.4902C40.432 17.6686 40.5205 17.624 40.609 17.401C40.6533 17.2895 40.6312 17.2226 40.5648 17.2672ZM42.2905 14.5908C42.0693 14.7246 40.5869 17.8693 39.901 19.6982C39.2594 21.3263 38.5514 23.9803 38.5736 24.6494C38.5736 24.8947 38.6842 24.5602 38.8169 23.9357C38.9497 23.2889 39.2152 22.263 39.4143 21.6162C39.8126 20.2334 40.9852 17.401 41.848 15.6837C42.1799 15.0369 42.379 14.5239 42.2905 14.5908Z" fill="#785B06"/>
<path d="M53.835 22.3299C52.6624 21.3263 52.3305 19.6982 52.9058 17.7801C53.8572 14.7023 56.7334 11.4238 58.2157 11.7138C58.5476 11.7807 58.6804 11.7138 59.0344 11.3346C59.853 10.4202 61.3796 10.0187 62.2646 10.4871C62.8177 10.777 63.9903 11.8699 64.2116 12.2936C64.6983 13.208 64.3443 15.1038 63.3045 17.2449L62.7735 18.2931L63.4815 18.2485C64.7204 18.137 66.4019 17.1557 67.9285 15.6614C68.2383 15.3491 68.7914 14.8139 69.1454 14.4793C69.6543 13.9663 69.8313 13.8548 69.9419 13.9886C70.1853 14.234 70.1632 14.3232 69.5215 15.3714C68.6587 16.7319 67.1542 17.9809 65.3842 18.8284C64.6983 19.1406 64.2779 19.2521 63.3266 19.2967L62.1097 19.3859L61.4238 20.2781C59.2999 23.0213 57.2644 24.2703 55.8041 23.735C55.3395 23.5566 55.0076 23.3335 53.835 22.3299ZM69.3667 14.68C69.2118 14.8585 69.1897 14.9031 69.3224 14.8139C69.433 14.7246 69.5658 14.68 69.61 14.7023C69.6322 14.7469 69.6764 14.68 69.6764 14.5685C69.6764 14.3232 69.6764 14.3232 69.3667 14.68ZM68.4153 16.0182C68.3932 16.1743 68.4153 16.2635 68.4595 16.2189C68.5038 16.1743 68.548 16.0405 68.5702 15.9067C68.5923 15.7506 68.6808 15.6391 68.7472 15.6391C68.8357 15.6391 68.9242 15.6168 68.9905 15.5498C69.0348 15.5052 68.9684 15.4829 68.8578 15.5052C68.5923 15.5498 68.4595 15.6614 68.4153 16.0182ZM67.4197 17.0218C67.1984 17.2895 67.3754 17.2226 67.6188 16.9549C67.8179 16.7319 67.8179 16.7096 67.6409 16.7096C67.5303 16.7096 67.486 16.7319 67.5082 16.7765C67.5524 16.7988 67.5082 16.9103 67.4197 17.0218ZM63.1938 14.1671C63.1717 14.3009 63.216 14.3678 63.2602 14.3232C63.3045 14.2786 63.3045 14.1671 63.2602 14.0779C63.216 13.9663 63.1938 14.0109 63.1938 14.1671ZM62.9062 15.1038C62.7513 15.4829 62.7513 15.6837 62.9062 15.4383C62.9726 15.3268 63.039 15.1484 63.039 15.0369C63.0168 14.9031 62.9947 14.9254 62.9062 15.1038ZM62.3752 17.3341C62.9283 16.2189 62.8841 16.1297 62.3088 17.178C61.8221 18.0924 61.8 18.137 61.9106 18.137C61.9327 18.137 62.154 17.7801 62.3752 17.3341ZM62.7292 15.7506C62.685 15.706 62.5965 15.8398 62.5301 16.0182C62.4416 16.2189 62.2425 16.6873 62.0433 17.0441C61.8663 17.4233 61.7336 17.7355 61.7778 17.7355C61.8 17.7355 62.0433 17.3118 62.3088 16.7765C62.5743 16.2412 62.7513 15.7952 62.7292 15.7506ZM60.7822 13.0965C59.6096 14.1671 59.1892 15.3937 59.6539 16.4866C59.8751 17.0664 60.4946 17.7578 60.6716 17.6463C60.738 17.6017 60.9813 17.178 61.2247 16.6873C62.0655 15.0146 62.8177 12.472 62.5522 12.2044C62.3752 12.0483 61.4017 12.539 60.7822 13.0965ZM58.9016 13.8771C58.9016 14.0333 58.8795 14.0556 59.4105 13.2527C59.6317 12.9181 59.8087 12.6282 59.7645 12.6282C59.676 12.6282 58.9016 13.721 58.9016 13.8771ZM58.1272 15.9959L57.729 15.2599L57.2865 16.1297C56.4458 17.8024 56.1139 18.5607 55.9148 19.2521C55.5829 20.3896 55.428 21.3486 55.5165 21.7723C55.605 22.1738 55.6271 22.1961 56.0918 22.1069C56.3573 22.0623 56.7334 21.9285 56.9325 21.8169C57.6184 21.4601 58.8795 20.3004 59.5432 19.3859L60.2291 18.4715L59.3662 17.6017C58.9016 17.111 58.3485 16.3974 58.1272 15.9959ZM57.021 14.3678C57.7069 13.4757 57.7954 13.275 57.2423 13.8994C56.2909 14.9477 55.0076 17.3341 54.5651 18.8061C54.3881 19.4082 54.5873 19.0291 54.9634 18.0701C55.428 16.9103 56.3794 15.1707 57.021 14.3678ZM56.7113 13.9663C56.5785 13.9663 55.2953 15.9067 54.897 16.665C54.4766 17.5125 53.9678 19.1183 53.9899 19.5198C53.9899 19.8097 54.012 19.8097 54.0563 19.5421C54.1005 19.4082 54.2333 18.8953 54.3881 18.4046C54.7643 17.2449 55.4723 15.8398 56.2024 14.8139C56.5121 14.3455 56.7555 13.9663 56.7113 13.9663ZM54.2996 17.2003C54.189 17.3787 54.1226 17.6017 54.1226 17.6686C54.1226 17.7355 54.189 17.6463 54.2996 17.4679C54.4103 17.2895 54.4988 17.0664 54.4988 16.9995C54.4988 16.9103 54.4103 16.9995 54.2996 17.2003ZM53.9678 18.0032C53.9014 18.1147 53.835 18.2931 53.8572 18.4046C53.8572 18.6276 54.0784 18.1816 54.1005 17.9363C54.1005 17.8693 54.0341 17.8916 53.9678 18.0032Z" fill="#785B06"/>
<path d="M77.7684 23.1551C76.8613 23.5566 76.4188 23.4674 75.6002 22.6422C74.8258 21.8616 74.5824 21.3263 74.5824 20.2781C74.5824 19.096 75.5338 16.3974 76.5515 14.7246C76.7949 14.3009 76.994 13.8994 76.9498 13.8771C76.8392 13.7656 75.0249 15.6391 74.0735 16.8434C73.6089 17.4456 72.8567 18.4715 72.4142 19.1406C70.1353 22.5529 69.4716 23.2443 68.7857 22.776C68.6087 22.6645 68.4538 22.5083 68.4538 22.4414C68.4538 22.3745 68.299 22.2407 68.0998 22.1292C67.1042 21.6385 66.6617 20.3673 66.8608 18.6053C67.1263 16.4866 69.2282 12.8512 70.6221 12.1375C71.0867 11.8699 71.5956 11.9814 71.7283 12.3382C71.7726 12.4944 71.8389 12.6059 71.9053 12.6059C71.9496 12.6059 72.1929 12.8066 72.4363 13.0073C72.9894 13.498 72.9452 13.7656 72.1708 15.1038C71.1531 16.8657 69.8256 19.6982 69.9583 19.832C70.0026 19.8543 70.6884 18.9399 71.5292 17.7578C73.7638 14.5908 74.6709 13.4757 75.9099 12.2267C77.7463 10.3979 78.5428 9.95183 79.0295 10.5317C79.118 10.6655 79.5163 11.0893 79.8924 11.4907C80.5561 12.1598 80.6004 12.249 80.6004 12.8958C80.6004 13.4534 80.4455 13.8325 79.7154 15.2822C79.2286 16.2189 78.5649 17.4233 78.233 17.9363C77.525 19.1183 76.7728 20.8356 76.64 21.5939C76.5737 22.0846 76.5958 22.1738 76.7949 22.1738C77.4586 22.1738 79.4499 20.4788 81.0207 18.6053C81.2641 18.2931 81.4854 18.0255 81.5296 18.0032C81.5739 17.9586 81.95 17.4902 82.3704 16.9549C83.2111 15.9067 83.4545 15.6837 83.2996 16.0628C83.2111 16.2858 83.2332 16.2858 83.4323 16.1297C83.8527 15.7952 83.6757 16.152 82.8571 17.3118C82.4367 17.9586 81.7951 18.8953 81.4411 19.4082C80.6446 20.568 78.4321 22.8429 77.7684 23.1551ZM82.3261 17.3564C81.8615 17.9586 81.6624 18.2931 81.8836 18.0701C82.0827 17.847 82.4367 17.4233 82.658 17.111C82.8792 16.8211 83.1005 16.5312 83.189 16.4866C83.2554 16.442 83.2775 16.3527 83.2332 16.3081C83.189 16.2635 82.7907 16.7319 82.3261 17.3564ZM81.1314 19.0291C80.9101 19.2298 80.8216 19.6536 81.0207 19.5198C81.0871 19.4752 81.1092 19.4082 81.065 19.3636C81.0207 19.319 81.065 19.2075 81.1535 19.0737C81.2862 18.8953 81.2862 18.8953 81.1314 19.0291ZM80.4012 19.8543C80.3791 19.9212 80.4234 19.9658 80.534 19.9658C80.6446 19.9658 80.7331 19.9435 80.7331 19.9212C80.7331 19.8097 80.4676 19.7651 80.4012 19.8543ZM79.9809 20.3004C79.8703 20.3673 79.7818 20.4788 79.7818 20.5234C79.7818 20.5457 79.8703 20.5234 79.9809 20.4342C80.0694 20.345 80.2021 20.3227 80.2685 20.3896C80.3128 20.4342 80.3128 20.4119 80.2685 20.3004C80.2021 20.1665 80.1358 20.1665 79.9809 20.3004ZM78.5649 21.9731C78.4985 22.0846 78.4543 22.1738 78.4985 22.1738C78.5206 22.1738 78.6313 22.0846 78.7198 21.9731C78.8304 21.817 78.8304 21.75 78.6976 21.6831C78.6091 21.6385 78.5649 21.6385 78.6313 21.6831C78.6755 21.75 78.6534 21.8839 78.5649 21.9731ZM68.122 18.0032C67.945 18.583 68.122 18.2262 68.6308 17.0887C68.8742 16.4643 69.0733 15.9736 69.0291 15.9736C68.9627 15.9736 68.2547 17.5125 68.122 18.0032ZM68.4538 18.6722C68.6751 18.0478 69.0512 17.0887 69.3167 16.5535C69.5822 16.0182 70.0689 15.1707 70.3787 14.7023C70.7106 14.2117 70.9097 13.8325 70.8654 13.8325C70.6884 13.8325 69.3831 15.929 68.8963 16.9995C68.476 17.9586 68.0335 19.3413 68.0556 19.6759C68.0556 19.7428 68.2326 19.2967 68.4538 18.6722ZM68.8742 18.6722C68.9627 18.4715 69.2503 17.847 69.538 17.2449C69.8035 16.665 70.3566 15.6391 70.7769 14.9923C71.1973 14.3232 71.5071 13.7656 71.4628 13.721C71.3964 13.6541 70.4451 15.1038 69.892 16.1074C69.5158 16.7765 68.7193 18.7169 68.7193 18.8953C68.7415 18.9622 68.8078 18.8507 68.8742 18.6722ZM71.4407 19.6759C71.4849 19.5421 71.4628 19.4975 71.3743 19.5421C71.3079 19.5867 71.2416 19.6759 71.2416 19.7428C71.2416 19.9435 71.3522 19.8989 71.4407 19.6759ZM72.1708 18.5384C72.2814 18.36 72.2593 18.3154 72.1266 18.3154C72.0159 18.3154 71.9717 18.36 71.9938 18.4269C72.0381 18.4938 71.9938 18.6499 71.9053 18.7615C71.7726 18.9176 71.7726 18.9622 71.8832 18.8953C71.9717 18.8284 72.1044 18.6722 72.1708 18.5384ZM72.3257 17.6686C72.3257 17.7801 72.4363 17.7132 72.6133 17.4902C72.7682 17.2672 72.7682 17.2672 72.5469 17.4456C72.4142 17.5348 72.3257 17.6463 72.3257 17.6686ZM72.7461 17.7578C72.9009 17.5348 72.9009 17.5348 72.6797 17.7132C72.5469 17.8024 72.4584 17.914 72.4584 17.9363C72.4584 18.0478 72.5691 17.9809 72.7461 17.7578ZM73.277 16.5535C73.4319 16.3304 73.4319 16.3304 73.2107 16.4866C73.1 16.5981 72.9894 16.7096 72.9894 16.7319C72.9894 16.8434 73.1001 16.7765 73.277 16.5535ZM73.5868 15.9736C73.4541 16.1297 73.3655 16.2412 73.4098 16.2412C73.454 16.2412 73.5868 16.1297 73.7195 15.9736C73.8523 15.8175 73.9408 15.706 73.8965 15.706C73.8523 15.706 73.7196 15.8175 73.5868 15.9736ZM73.8523 16.2412C73.985 16.1074 74.0735 15.9736 74.0293 15.9736C73.985 15.9736 73.8523 16.1074 73.7195 16.2412C73.5868 16.3974 73.4983 16.5089 73.5425 16.5089C73.5868 16.5089 73.7195 16.3974 73.8523 16.2412ZM75.3125 14.3232C75.3789 14.3901 75.3789 14.3455 75.3347 14.2563C75.2462 14.1225 75.1798 14.1225 75.047 14.234C74.9364 14.3232 74.8479 14.4347 74.8479 14.457C74.8479 14.5016 74.9364 14.457 75.0249 14.3901C75.1355 14.3009 75.2683 14.2786 75.3125 14.3232ZM79.2508 13.6095C79.2508 13.4534 76.8834 17.6463 76.64 18.2485C76.3303 19.0068 76.4409 18.9176 76.8613 18.0924C77.0825 17.6686 77.702 16.5089 78.2551 15.5052C78.8083 14.5239 79.2508 13.6764 79.2508 13.6095ZM78.1224 13.9663C77.9454 14.3232 77.8126 14.6354 77.8569 14.6354C77.879 14.6354 78.0781 14.3232 78.2551 13.9663C78.4321 13.5872 78.5649 13.275 78.5206 13.275C78.4985 13.275 78.2994 13.5872 78.1224 13.9663ZM77.1268 15.7729C76.8834 16.2189 76.7506 16.5312 76.817 16.442C76.8834 16.3751 77.1489 15.9513 77.3923 15.5052C77.6356 15.0592 77.7684 14.7692 77.702 14.8362C77.6135 14.9031 77.348 15.3268 77.1268 15.7729ZM76.5294 16.888C76.463 17.0664 76.463 17.0887 76.5958 16.9549C76.7064 16.8657 76.7285 16.7542 76.7064 16.7096C76.6621 16.665 76.5737 16.7542 76.5294 16.888ZM75.7329 19.6759L75.6444 20.0773L75.7993 19.6759C75.8878 19.4528 76.1312 18.8507 76.3524 18.3377C76.5737 17.8024 77.1489 16.6873 77.6135 15.8398C78.1003 14.9923 78.6313 14.0556 78.7861 13.7656C78.9631 13.4534 79.1401 13.0742 79.1844 12.8735C79.2286 12.6951 79.0295 12.9627 78.764 13.498C78.4764 14.0109 77.8569 15.1038 77.4144 15.9067C76.5515 17.4456 75.8657 18.9845 75.7329 19.6759Z" fill="#785B06"/>
<path d="M91.6904 5.8927C94.1242 5.73659 96.2924 6.74021 96.2703 8.03378C96.2703 8.32372 96.2482 8.30141 96.0712 7.96687C95.4738 6.87403 93.1728 6.76252 90.0974 7.69924L89.4337 7.87766L88.1283 10.5986C85.7831 15.4606 84.6769 18.3154 83.9025 21.5493C83.7255 22.3076 83.5928 23.1551 83.6149 23.4228L83.6591 23.8911L84.3229 23.3781C85.1857 22.7314 86.5575 21.1479 88.0398 19.1629L88.2832 18.8284L88.062 19.2075C87.9513 19.4305 87.885 19.6313 87.9292 19.6759C87.9956 19.7205 88.062 19.6982 88.0841 19.6313C88.1062 19.5421 88.239 19.3636 88.3496 19.2298C88.4602 19.0737 88.3496 19.319 88.1062 19.7651C86.4469 22.8875 84.699 25.0955 83.9025 25.0955C83.6813 25.0955 83.3494 24.9617 83.1503 24.8055C82.9733 24.6717 82.752 24.5379 82.6856 24.5379C82.4423 24.5379 81.6236 23.512 81.4466 22.9767C81.1369 22.1069 81.2254 19.9881 81.6236 18.4715C82.1325 16.5758 82.6193 15.416 84.2565 12.0706L85.7167 9.08201L85.2964 9.19353C84.345 9.39425 83.1503 9.28274 82.5308 8.9482C81.8006 8.54675 80.6944 6.98555 80.5617 6.22725C80.451 5.53586 80.7829 5.53586 81.2475 6.24955C81.9334 7.32009 83.1281 7.72154 84.876 7.47621C86.9115 7.18627 86.6902 7.36469 88.3275 4.59914C89.1461 3.26097 90.0089 1.92279 90.2523 1.65516C90.6727 1.1645 91.2037 0.963772 91.2037 1.29831C91.2037 1.38753 91.4249 1.63286 91.6904 1.87819C92.1772 2.30194 92.1772 2.30194 92.0002 2.83721C91.9117 3.12715 91.5577 3.90775 91.2258 4.57683C90.8718 5.24592 90.5842 5.8258 90.5621 5.8704C90.5399 5.93731 91.0488 5.93731 91.6904 5.8927ZM87.6637 19.8989C87.5531 20.0327 87.4646 20.2111 87.4646 20.3004C87.4646 20.4565 87.531 20.3896 87.708 19.9658C87.8628 19.6536 87.8628 19.6536 87.6637 19.8989ZM82.5308 18.8284C82.4644 18.9845 82.4201 19.2298 82.4201 19.3636C82.4201 19.5867 82.4423 19.5644 82.5308 19.2967C82.575 19.1183 82.6414 18.873 82.6414 18.7615C82.6414 18.6499 82.5971 18.6722 82.5308 18.8284ZM82.2653 19.8989C82.2653 20.0327 82.2874 20.1219 82.3316 20.0773C82.3759 20.0327 82.398 19.9212 82.3538 19.8097C82.3095 19.6982 82.2653 19.7428 82.2653 19.8989ZM82.5308 21.0363C82.6414 20.345 82.929 19.2298 83.1281 18.5607C83.637 16.7988 84.4556 14.9031 86.0486 11.6022C86.8009 9.99643 87.3982 8.68056 87.354 8.68056C87.2876 8.68056 87.0442 9.10432 86.8009 9.61728C86.5575 10.1302 86.3141 10.4871 86.2477 10.4202C86.2035 10.3087 86.1371 10.3533 86.0929 10.4871C86.0265 10.6209 86.0486 10.6655 86.1371 10.6209C86.3584 10.4871 86.4469 10.2641 84.7654 13.9217C83.8583 15.8621 83.4821 16.8211 83.0618 18.1593C82.6635 19.4752 82.2431 21.4824 82.2653 22.04C82.2874 22.1961 82.398 21.75 82.5308 21.0363ZM86.9115 10.6209C87.4867 9.43886 87.9513 8.45753 87.9292 8.43523C87.8628 8.36832 86.0707 11.9814 85.0751 14.1894C84.168 16.2189 83.1724 19.0291 83.0175 19.9658C82.9069 20.5457 82.9733 20.3896 83.6591 18.2262C84.2122 16.5089 85.3627 13.8325 86.9115 10.6209ZM91.1373 2.61418C91.0931 2.61418 90.9382 2.85952 90.8054 3.14945C90.6506 3.46169 90.5621 3.70702 90.5842 3.70702C90.6284 3.70702 90.7833 3.46169 90.9382 3.14945C91.0709 2.85952 91.1816 2.61418 91.1373 2.61418ZM89.5222 5.71428C89.7213 5.33513 89.8541 5.0452 89.8098 5.0452C89.7656 5.0452 89.0576 6.24955 89.0576 6.33876C89.0576 6.51718 89.2346 6.29416 89.5222 5.71428ZM88.6372 6.47258C88.7036 6.42797 89.2788 5.49125 89.8762 4.39841C90.4957 3.30557 91.0267 2.36885 91.0488 2.27964C91.1373 1.9897 90.4072 3.14945 89.8098 4.19769C88.6151 6.31646 88.5045 6.56179 88.6372 6.47258ZM90.2745 4.37611C90.4072 4.06387 90.5178 3.84084 90.4736 3.84084C90.4293 3.84084 90.2745 4.06387 90.1417 4.37611C89.9868 4.66605 89.8983 4.91138 89.9204 4.91138C89.9647 4.91138 90.1196 4.66605 90.2745 4.37611Z" fill="#785B06"/>
<path d="M102.335 15.9736C102.932 15.416 102.844 15.6168 101.538 17.6686C99.5472 20.7687 97.8878 22.8875 97.0028 23.4897C96.4718 23.8465 96.0514 23.7573 95.3656 23.1328C94.5691 22.4414 94.3257 21.8393 94.3257 20.6349V19.6982L93.0203 21.014C91.7592 22.3076 90.8964 22.9098 90.3211 22.9098C89.9892 22.9098 89.2591 22.5529 89.2591 22.3745C89.2591 22.3299 89.0821 22.1961 88.8609 22.1069C88.3078 21.8616 87.7989 21.1479 87.6219 20.3227C87.3564 18.9622 88.1308 16.442 89.414 14.5016C90.9185 12.2267 93.4628 10.3979 95.1443 10.3979C96.1399 10.3979 96.3391 10.5094 97.3568 11.5799C98.1976 12.4497 98.4409 12.8958 98.2861 13.2973C98.2197 13.4311 98.3082 13.6095 98.5294 13.7879C98.7286 13.944 98.8613 14.1894 98.8613 14.3901C98.8613 14.5908 98.4631 15.6391 97.9763 16.7096C96.6267 19.6982 96.3169 20.568 96.2063 21.5716C96.1621 22.0846 96.14 22.5306 96.1621 22.5752C96.2727 22.6645 96.9143 22.1961 97.6444 21.5047C98.0206 21.1256 99.2153 19.6313 100.299 18.1593C101.384 16.7096 102.313 15.5052 102.379 15.5052C102.423 15.5052 102.357 15.706 102.18 15.9513L101.892 16.3751L102.335 15.9736ZM96.9807 16.3751C96.9807 16.3081 96.8701 16.4643 96.7373 16.7096C96.5824 16.9772 96.4718 17.2449 96.4718 17.3341C96.4718 17.401 96.5824 17.2449 96.7373 16.9995C96.8701 16.7319 96.9807 16.4643 96.9807 16.3751ZM91.0734 14.7023C90.8521 14.8808 90.5202 15.3714 90.6309 15.3714C90.653 15.3714 90.8079 15.1707 90.9849 14.9477C91.184 14.6577 91.2282 14.5685 91.0734 14.7023ZM88.7281 19.609C88.7281 19.7651 88.9051 19.3636 89.1043 18.7392C89.3034 18.1147 89.7237 17.111 90.0114 16.5535C90.3211 15.9736 90.476 15.5721 90.3875 15.6391C89.9671 15.9959 88.7281 18.9845 88.7281 19.609ZM89.3698 18.7169C88.9273 20.0104 89.1042 19.7874 89.7237 18.2931C90.0335 17.4902 90.4981 16.5312 90.7415 16.152C90.9849 15.7506 91.361 15.193 91.5822 14.9031C91.8699 14.5239 91.892 14.4347 91.6929 14.6354C91.0291 15.193 89.8786 17.2449 89.3698 18.7169ZM94.4806 17.9586C94.6355 17.7578 94.6355 17.7355 94.4363 17.9139C94.3036 18.0255 94.193 18.1147 94.193 18.1593C94.193 18.2708 94.3036 18.1816 94.4806 17.9586ZM91.361 20.2334C92.8212 19.0514 96.8701 13.721 96.8701 13.0073C96.8701 12.7174 96.3833 12.8289 95.3213 13.3642C94.2372 13.9217 93.0646 15.0146 92.2017 16.2412C91.3389 17.4902 90.2326 19.8097 90.0999 20.6126L90.0114 21.2148L90.4096 20.9694C90.6087 20.8356 91.0512 20.5011 91.361 20.2334ZM95.3435 19.9212C95.3877 19.8766 95.3877 19.7428 95.3435 19.6536C95.3213 19.5421 95.2771 19.5867 95.2771 19.7428C95.2771 19.8766 95.2992 19.9658 95.3435 19.9212ZM95.4319 19.2744C95.4762 19.2298 95.6532 18.8061 95.8523 18.2931C96.2284 17.3118 96.1842 17.0664 95.8081 17.9586C95.5647 18.5607 95.3213 19.3859 95.4319 19.2744ZM95.9408 18.6722C95.9408 18.7392 95.9851 18.7169 96.0736 18.6053C96.1399 18.4938 96.1842 18.3377 96.1842 18.2708C96.1842 18.2039 96.1399 18.2262 96.0736 18.3377C95.9851 18.4492 95.9408 18.6053 95.9408 18.6722ZM98.1091 21.9954C98.1533 21.9285 98.1091 21.8839 97.9984 21.8839C97.8878 21.8839 97.8436 21.9285 97.8878 21.9954C97.9099 22.04 97.9763 22.1069 97.9984 22.1069C98.0206 22.1069 98.0869 22.04 98.1091 21.9954ZM98.3524 21.4601C98.5073 21.2594 98.5073 21.2371 98.3082 21.4155C98.1754 21.5047 98.0648 21.6162 98.0648 21.6385C98.0648 21.75 98.1754 21.6831 98.3524 21.4601ZM101.14 17.5571C101.317 17.3564 101.317 17.3341 101.096 17.5125C100.875 17.6909 100.808 17.8024 100.919 17.8024C100.941 17.8024 101.052 17.6909 101.14 17.5571ZM101.804 16.6427C101.981 16.3974 101.981 16.3974 101.76 16.5758C101.649 16.665 101.538 16.8211 101.538 16.888C101.538 16.9772 101.561 16.9995 101.561 16.9772C101.583 16.9549 101.693 16.7988 101.804 16.6427Z" fill="#785B06"/>
<path d="M111.431 23.1551C110.524 23.5566 110.081 23.4674 109.263 22.6422C108.488 21.8616 108.245 21.3263 108.245 20.2781C108.245 19.096 109.196 16.3974 110.214 14.7246C110.457 14.3009 110.657 13.8994 110.612 13.8771C110.502 13.7656 108.687 15.6391 107.736 16.8434C107.272 17.4456 106.519 18.4715 106.077 19.1406C103.798 22.5529 103.134 23.2443 102.448 22.776C102.271 22.6645 102.116 22.5083 102.116 22.4414C102.116 22.3745 101.962 22.2407 101.762 22.1292C100.767 21.6385 100.324 20.3673 100.523 18.6053C100.789 16.4866 102.891 12.8512 104.285 12.1375C104.749 11.8699 105.258 11.9814 105.391 12.3382C105.435 12.4944 105.502 12.6059 105.568 12.6059C105.612 12.6059 105.856 12.8066 106.099 13.0073C106.652 13.498 106.608 13.7656 105.833 15.1038C104.816 16.8657 103.488 19.6982 103.621 19.832C103.665 19.8543 104.351 18.9399 105.192 17.7578C107.426 14.5908 108.333 13.4757 109.572 12.2267C111.409 10.3979 112.205 9.95183 112.692 10.5317C112.781 10.6655 113.179 11.0893 113.555 11.4907C114.219 12.1598 114.263 12.249 114.263 12.8958C114.263 13.4534 114.108 13.8325 113.378 15.2822C112.891 16.2189 112.227 17.4233 111.896 17.9363C111.188 19.1183 110.435 20.8356 110.303 21.5939C110.236 22.0846 110.258 22.1738 110.457 22.1738C111.121 22.1738 113.112 20.4788 114.683 18.6053C114.927 18.2931 115.148 18.0255 115.192 18.0032C115.236 17.9586 115.613 17.4902 116.033 16.9549C116.874 15.9067 117.117 15.6837 116.962 16.0628C116.874 16.2858 116.896 16.2858 117.095 16.1297C117.515 15.7952 117.338 16.152 116.52 17.3118C116.099 17.9586 115.458 18.8953 115.104 19.4082C114.307 20.568 112.095 22.8429 111.431 23.1551ZM115.989 17.3564C115.524 17.9586 115.325 18.2931 115.546 18.0701C115.745 17.847 116.099 17.4233 116.321 17.111C116.542 16.8211 116.763 16.5312 116.852 16.4866C116.918 16.442 116.94 16.3527 116.896 16.3081C116.852 16.2635 116.453 16.7319 115.989 17.3564ZM114.794 19.0291C114.573 19.2298 114.484 19.6536 114.683 19.5198C114.75 19.4752 114.772 19.4082 114.728 19.3636C114.683 19.319 114.728 19.2075 114.816 19.0737C114.949 18.8953 114.949 18.8953 114.794 19.0291ZM114.064 19.8543C114.042 19.9212 114.086 19.9658 114.197 19.9658C114.307 19.9658 114.396 19.9435 114.396 19.9212C114.396 19.8097 114.13 19.7651 114.064 19.8543ZM113.643 20.3004C113.533 20.3673 113.444 20.4788 113.444 20.5234C113.444 20.5457 113.533 20.5234 113.643 20.4342C113.732 20.345 113.865 20.3227 113.931 20.3896C113.975 20.4342 113.975 20.4119 113.931 20.3004C113.865 20.1665 113.798 20.1665 113.643 20.3004ZM112.227 21.9731C112.161 22.0846 112.117 22.1738 112.161 22.1738C112.183 22.1738 112.294 22.0846 112.382 21.9731C112.493 21.817 112.493 21.75 112.36 21.6831C112.272 21.6385 112.227 21.6385 112.294 21.6831C112.338 21.75 112.316 21.8839 112.227 21.9731ZM101.785 18.0032C101.608 18.583 101.785 18.2262 102.293 17.0887C102.537 16.4643 102.736 15.9736 102.692 15.9736C102.625 15.9736 101.917 17.5125 101.785 18.0032ZM102.116 18.6722C102.338 18.0478 102.714 17.0887 102.979 16.5535C103.245 16.0182 103.732 15.1707 104.041 14.7023C104.373 14.2117 104.572 13.8325 104.528 13.8325C104.351 13.8325 103.046 15.929 102.559 16.9995C102.139 17.9586 101.696 19.3413 101.718 19.6759C101.718 19.7428 101.895 19.2967 102.116 18.6722ZM102.537 18.6722C102.625 18.4715 102.913 17.847 103.201 17.2449C103.466 16.665 104.019 15.6391 104.44 14.9923C104.86 14.3232 105.17 13.7656 105.125 13.721C105.059 13.6541 104.108 15.1038 103.555 16.1074C103.178 16.7765 102.382 18.7169 102.382 18.8953C102.404 18.9622 102.47 18.8507 102.537 18.6722ZM105.103 19.6759C105.148 19.5421 105.125 19.4975 105.037 19.5421C104.971 19.5867 104.904 19.6759 104.904 19.7428C104.904 19.9435 105.015 19.8989 105.103 19.6759ZM105.833 18.5384C105.944 18.36 105.922 18.3154 105.789 18.3154C105.679 18.3154 105.634 18.36 105.656 18.4269C105.701 18.4938 105.656 18.6499 105.568 18.7615C105.435 18.9176 105.435 18.9622 105.546 18.8953C105.634 18.8284 105.767 18.6722 105.833 18.5384ZM105.988 17.6686C105.988 17.7801 106.099 17.7132 106.276 17.4902C106.431 17.2672 106.431 17.2672 106.21 17.4456C106.077 17.5348 105.988 17.6463 105.988 17.6686ZM106.409 17.7578C106.564 17.5348 106.564 17.5348 106.342 17.7132C106.21 17.8024 106.121 17.914 106.121 17.9363C106.121 18.0478 106.232 17.9809 106.409 17.7578ZM106.94 16.5535C107.095 16.3304 107.095 16.3304 106.873 16.4866C106.763 16.5981 106.652 16.7096 106.652 16.7319C106.652 16.8434 106.763 16.7765 106.94 16.5535ZM107.249 15.9736C107.117 16.1297 107.028 16.2412 107.072 16.2412C107.117 16.2412 107.249 16.1297 107.382 15.9736C107.515 15.8175 107.603 15.706 107.559 15.706C107.515 15.706 107.382 15.8175 107.249 15.9736ZM107.515 16.2412C107.648 16.1074 107.736 15.9736 107.692 15.9736C107.648 15.9736 107.515 16.1074 107.382 16.2412C107.249 16.3974 107.161 16.5089 107.205 16.5089C107.249 16.5089 107.382 16.3974 107.515 16.2412ZM108.975 14.3232C109.041 14.3901 109.041 14.3455 108.997 14.2563C108.909 14.1225 108.842 14.1225 108.71 14.234C108.599 14.3232 108.51 14.4347 108.51 14.457C108.51 14.5016 108.599 14.457 108.687 14.3901C108.798 14.3009 108.931 14.2786 108.975 14.3232ZM112.913 13.6095C112.913 13.4534 110.546 17.6463 110.303 18.2485C109.993 19.0068 110.103 18.9176 110.524 18.0924C110.745 17.6686 111.365 16.5089 111.918 15.5052C112.471 14.5239 112.913 13.6764 112.913 13.6095ZM111.785 13.9663C111.608 14.3232 111.475 14.6354 111.519 14.6354C111.542 14.6354 111.741 14.3232 111.918 13.9663C112.095 13.5872 112.227 13.275 112.183 13.275C112.161 13.275 111.962 13.5872 111.785 13.9663ZM110.789 15.7729C110.546 16.2189 110.413 16.5312 110.48 16.442C110.546 16.3751 110.811 15.9513 111.055 15.5052C111.298 15.0592 111.431 14.7692 111.365 14.8362C111.276 14.9031 111.011 15.3268 110.789 15.7729ZM110.192 16.888C110.126 17.0664 110.126 17.0887 110.258 16.9549C110.369 16.8657 110.391 16.7542 110.369 16.7096C110.325 16.665 110.236 16.7542 110.192 16.888ZM109.395 19.6759L109.307 20.0773L109.462 19.6759C109.55 19.4528 109.794 18.8507 110.015 18.3377C110.236 17.8024 110.811 16.6873 111.276 15.8398C111.763 14.9923 112.294 14.0556 112.449 13.7656C112.626 13.4534 112.803 13.0742 112.847 12.8735C112.891 12.6951 112.692 12.9627 112.427 13.498C112.139 14.0109 111.519 15.1038 111.077 15.9067C110.214 17.4456 109.528 18.9845 109.395 19.6759Z" fill="#785B06"/>
<path d="M129.645 15.9736C130.243 15.416 130.154 15.6168 128.849 17.6686C126.858 20.7687 125.198 22.8875 124.313 23.4897C123.782 23.8465 123.362 23.7573 122.676 23.1328C121.879 22.4414 121.636 21.8393 121.636 20.6349V19.6982L120.331 21.014C119.07 22.3076 118.207 22.9098 117.631 22.9098C117.3 22.9098 116.569 22.5529 116.569 22.3745C116.569 22.3299 116.392 22.1961 116.171 22.1069C115.618 21.8616 115.109 21.1479 114.932 20.3227C114.667 18.9622 115.441 16.442 116.724 14.5016C118.229 12.2267 120.773 10.3979 122.455 10.3979C123.45 10.3979 123.649 10.5094 124.667 11.5799C125.508 12.4497 125.751 12.8958 125.596 13.2973C125.53 13.4311 125.619 13.6095 125.84 13.7879C126.039 13.944 126.172 14.1894 126.172 14.3901C126.172 14.5908 125.773 15.6391 125.287 16.7096C123.937 19.6982 123.627 20.568 123.517 21.5716C123.472 22.0846 123.45 22.5306 123.472 22.5752C123.583 22.6645 124.225 22.1961 124.955 21.5047C125.331 21.1256 126.526 19.6313 127.61 18.1593C128.694 16.7096 129.623 15.5052 129.689 15.5052C129.734 15.5052 129.667 15.706 129.49 15.9513L129.203 16.3751L129.645 15.9736ZM124.291 16.3751C124.291 16.3081 124.18 16.4643 124.048 16.7096C123.893 16.9772 123.782 17.2449 123.782 17.3341C123.782 17.401 123.893 17.2449 124.048 16.9995C124.18 16.7319 124.291 16.4643 124.291 16.3751ZM118.384 14.7023C118.162 14.8808 117.831 15.3714 117.941 15.3714C117.963 15.3714 118.118 15.1707 118.295 14.9477C118.494 14.6577 118.539 14.5685 118.384 14.7023ZM116.038 19.609C116.038 19.7651 116.215 19.3636 116.415 18.7392C116.614 18.1147 117.034 17.111 117.322 16.5535C117.631 15.9736 117.786 15.5721 117.698 15.6391C117.277 15.9959 116.038 18.9845 116.038 19.609ZM116.68 18.7169C116.238 20.0104 116.415 19.7874 117.034 18.2931C117.344 17.4902 117.808 16.5312 118.052 16.152C118.295 15.7506 118.671 15.193 118.893 14.9031C119.18 14.5239 119.202 14.4347 119.003 14.6354C118.339 15.193 117.189 17.2449 116.68 18.7169ZM121.791 17.9586C121.946 17.7578 121.946 17.7355 121.747 17.9139C121.614 18.0255 121.503 18.1147 121.503 18.1593C121.503 18.2708 121.614 18.1816 121.791 17.9586ZM118.671 20.2334C120.132 19.0514 124.18 13.721 124.18 13.0073C124.18 12.7174 123.694 12.8289 122.632 13.3642C121.548 13.9217 120.375 15.0146 119.512 16.2412C118.649 17.4902 117.543 19.8097 117.41 20.6126L117.322 21.2148L117.72 20.9694C117.919 20.8356 118.362 20.5011 118.671 20.2334ZM122.654 19.9212C122.698 19.8766 122.698 19.7428 122.654 19.6536C122.632 19.5421 122.587 19.5867 122.587 19.7428C122.587 19.8766 122.61 19.9658 122.654 19.9212ZM122.742 19.2744C122.787 19.2298 122.964 18.8061 123.163 18.2931C123.539 17.3118 123.495 17.0664 123.118 17.9586C122.875 18.5607 122.632 19.3859 122.742 19.2744ZM123.251 18.6722C123.251 18.7392 123.295 18.7169 123.384 18.6053C123.45 18.4938 123.495 18.3377 123.495 18.2708C123.495 18.2039 123.45 18.2262 123.384 18.3377C123.295 18.4492 123.251 18.6053 123.251 18.6722ZM125.419 21.9954C125.464 21.9285 125.419 21.8839 125.309 21.8839C125.198 21.8839 125.154 21.9285 125.198 21.9954C125.22 22.04 125.287 22.1069 125.309 22.1069C125.331 22.1069 125.397 22.04 125.419 21.9954ZM125.663 21.4601C125.818 21.2594 125.818 21.2371 125.619 21.4155C125.486 21.5047 125.375 21.6162 125.375 21.6385C125.375 21.75 125.486 21.6831 125.663 21.4601ZM128.451 17.5571C128.628 17.3564 128.627 17.3341 128.406 17.5125C128.185 17.6909 128.119 17.8024 128.229 17.8024C128.251 17.8024 128.362 17.6909 128.451 17.5571ZM129.114 16.6427C129.291 16.3974 129.291 16.3974 129.07 16.5758C128.959 16.665 128.849 16.8211 128.849 16.888C128.849 16.9772 128.871 16.9995 128.871 16.9772C128.893 16.9549 129.004 16.7988 129.114 16.6427Z" fill="#785B06"/>
</svg>
