<svg width="109" height="31" viewBox="0 0 109 31" fill="none" xmlns="http://www.w3.org/2000/svg">
<path d="M94.109 11.688C94.541 11.288 94.477 11.432 93.533 12.904C92.093 15.128 90.893 16.648 90.253 17.08C89.869 17.336 89.565 17.272 89.069 16.824C88.493 16.328 88.317 15.896 88.317 15.032V14.36L87.373 15.304C86.461 16.232 85.837 16.664 85.421 16.664C85.181 16.664 84.653 16.408 84.653 16.28C84.653 16.248 84.525 16.152 84.365 16.088C83.965 15.912 83.597 15.4 83.469 14.808C83.277 13.832 83.837 12.024 84.765 10.632C85.853 8.99999 87.693 7.68799 88.909 7.68799C89.629 7.68799 89.773 7.76799 90.509 8.53599C91.117 9.15999 91.293 9.47999 91.181 9.76799C91.133 9.86399 91.197 9.99199 91.357 10.12C91.501 10.232 91.597 10.408 91.597 10.552C91.597 10.696 91.309 11.448 90.957 12.216C89.981 14.36 89.757 14.984 89.677 15.704C89.645 16.072 89.629 16.392 89.645 16.424C89.725 16.488 90.189 16.152 90.717 15.656C90.989 15.384 91.853 14.312 92.637 13.256C93.421 12.216 94.093 11.352 94.141 11.352C94.173 11.352 94.125 11.496 93.997 11.672L93.789 11.976L94.109 11.688ZM90.237 11.976C90.237 11.928 90.157 12.04 90.061 12.216C89.949 12.408 89.869 12.6 89.869 12.664C89.869 12.712 89.949 12.6 90.061 12.424C90.157 12.232 90.237 12.04 90.237 11.976ZM85.965 10.776C85.805 10.904 85.565 11.256 85.645 11.256C85.661 11.256 85.773 11.112 85.901 10.952C86.045 10.744 86.077 10.68 85.965 10.776ZM84.269 14.296C84.269 14.408 84.397 14.12 84.541 13.672C84.685 13.224 84.989 12.504 85.197 12.104C85.421 11.688 85.533 11.4 85.469 11.448C85.165 11.704 84.269 13.848 84.269 14.296ZM84.733 13.656C84.413 14.584 84.541 14.424 84.989 13.352C85.213 12.776 85.549 12.088 85.725 11.816C85.901 11.528 86.173 11.128 86.333 10.92C86.541 10.648 86.557 10.584 86.413 10.728C85.933 11.128 85.101 12.6 84.733 13.656ZM88.429 13.112C88.541 12.968 88.541 12.952 88.397 13.08C88.301 13.16 88.221 13.224 88.221 13.256C88.221 13.336 88.301 13.272 88.429 13.112ZM86.173 14.744C87.229 13.896 90.157 10.072 90.157 9.55999C90.157 9.35199 89.805 9.43199 89.037 9.81599C88.253 10.216 87.405 11 86.781 11.88C86.157 12.776 85.357 14.44 85.261 15.016L85.197 15.448L85.485 15.272C85.629 15.176 85.949 14.936 86.173 14.744ZM89.053 14.52C89.085 14.488 89.085 14.392 89.053 14.328C89.037 14.248 89.005 14.28 89.005 14.392C89.005 14.488 89.021 14.552 89.053 14.52ZM89.117 14.056C89.149 14.024 89.277 13.72 89.421 13.352C89.693 12.648 89.661 12.472 89.389 13.112C89.213 13.544 89.037 14.136 89.117 14.056ZM89.485 13.624C89.485 13.672 89.517 13.656 89.581 13.576C89.629 13.496 89.661 13.384 89.661 13.336C89.661 13.288 89.629 13.304 89.581 13.384C89.517 13.464 89.485 13.576 89.485 13.624ZM91.053 16.008C91.085 15.96 91.053 15.928 90.973 15.928C90.893 15.928 90.861 15.96 90.893 16.008C90.909 16.04 90.957 16.088 90.973 16.088C90.989 16.088 91.037 16.04 91.053 16.008ZM91.229 15.624C91.341 15.48 91.341 15.464 91.197 15.592C91.101 15.656 91.021 15.736 91.021 15.752C91.021 15.832 91.101 15.784 91.229 15.624ZM93.245 12.824C93.373 12.68 93.373 12.664 93.213 12.792C93.053 12.92 93.005 13 93.085 13C93.101 13 93.181 12.92 93.245 12.824ZM93.725 12.168C93.853 11.992 93.853 11.992 93.693 12.12C93.613 12.184 93.533 12.296 93.533 12.344C93.533 12.408 93.549 12.424 93.549 12.408C93.565 12.392 93.645 12.28 93.725 12.168Z" fill="#785B06"/>
<path d="M80.937 16.84C80.281 17.128 79.961 17.064 79.369 16.472C78.809 15.912 78.633 15.528 78.633 14.776C78.633 13.928 79.321 11.992 80.057 10.792C80.233 10.488 80.377 10.2 80.345 10.184C80.265 10.104 78.953 11.448 78.265 12.312C77.929 12.744 77.385 13.48 77.065 13.96C75.417 16.408 74.937 16.904 74.441 16.568C74.313 16.488 74.201 16.376 74.201 16.328C74.201 16.28 74.089 16.184 73.945 16.104C73.225 15.752 72.905 14.84 73.049 13.576C73.241 12.056 74.761 9.448 75.769 8.936C76.105 8.744 76.473 8.824 76.569 9.08C76.601 9.192 76.649 9.272 76.697 9.272C76.729 9.272 76.905 9.416 77.081 9.56C77.481 9.912 77.449 10.104 76.889 11.064C76.153 12.328 75.193 14.36 75.289 14.456C75.321 14.472 75.817 13.816 76.425 12.968C78.041 10.696 78.697 9.896 79.593 9C80.921 7.688 81.497 7.36799 81.849 7.784C81.913 7.87999 82.201 8.184 82.473 8.47199C82.953 8.952 82.985 9.016 82.985 9.48C82.985 9.88 82.873 10.152 82.345 11.192C81.993 11.864 81.513 12.728 81.273 13.096C80.761 13.944 80.217 15.176 80.121 15.72C80.073 16.072 80.089 16.136 80.233 16.136C80.713 16.136 82.153 14.92 83.289 13.576C83.465 13.352 83.625 13.16 83.657 13.144C83.689 13.112 83.961 12.776 84.265 12.392C84.873 11.64 85.049 11.48 84.937 11.752C84.873 11.912 84.889 11.912 85.033 11.8C85.337 11.56 85.209 11.816 84.617 12.648C84.313 13.112 83.849 13.784 83.593 14.152C83.017 14.984 81.417 16.616 80.937 16.84ZM84.233 12.68C83.897 13.112 83.753 13.352 83.913 13.192C84.057 13.032 84.313 12.728 84.473 12.504C84.633 12.296 84.793 12.088 84.857 12.056C84.905 12.024 84.921 11.96 84.889 11.928C84.857 11.896 84.569 12.232 84.233 12.68ZM83.369 13.88C83.209 14.024 83.145 14.328 83.289 14.232C83.337 14.2 83.353 14.152 83.321 14.12C83.289 14.088 83.321 14.008 83.385 13.912C83.481 13.784 83.481 13.784 83.369 13.88ZM82.841 14.472C82.825 14.52 82.857 14.552 82.937 14.552C83.017 14.552 83.081 14.536 83.081 14.52C83.081 14.44 82.889 14.408 82.841 14.472ZM82.537 14.792C82.457 14.84 82.393 14.92 82.393 14.952C82.393 14.968 82.457 14.952 82.537 14.888C82.601 14.824 82.697 14.808 82.745 14.856C82.777 14.888 82.777 14.872 82.745 14.792C82.697 14.696 82.649 14.696 82.537 14.792ZM81.513 15.992C81.465 16.072 81.433 16.136 81.465 16.136C81.481 16.136 81.561 16.072 81.625 15.992C81.705 15.88 81.705 15.832 81.609 15.784C81.545 15.752 81.513 15.752 81.561 15.784C81.593 15.832 81.577 15.928 81.513 15.992ZM73.961 13.144C73.833 13.56 73.961 13.304 74.329 12.488C74.505 12.04 74.649 11.688 74.617 11.688C74.569 11.688 74.057 12.792 73.961 13.144ZM74.201 13.624C74.361 13.176 74.633 12.488 74.825 12.104C75.017 11.72 75.369 11.112 75.593 10.776C75.833 10.424 75.977 10.152 75.945 10.152C75.817 10.152 74.873 11.656 74.521 12.424C74.217 13.112 73.897 14.104 73.913 14.344C73.913 14.392 74.041 14.072 74.201 13.624ZM74.505 13.624C74.569 13.48 74.777 13.032 74.985 12.6C75.177 12.184 75.577 11.448 75.881 10.984C76.185 10.504 76.409 10.104 76.377 10.072C76.329 10.024 75.641 11.064 75.241 11.784C74.969 12.264 74.393 13.656 74.393 13.784C74.409 13.832 74.457 13.752 74.505 13.624ZM76.361 14.344C76.393 14.248 76.377 14.216 76.313 14.248C76.265 14.28 76.217 14.344 76.217 14.392C76.217 14.536 76.297 14.504 76.361 14.344ZM76.889 13.528C76.969 13.4 76.953 13.368 76.857 13.368C76.777 13.368 76.745 13.4 76.761 13.448C76.793 13.496 76.761 13.608 76.697 13.688C76.601 13.8 76.601 13.832 76.681 13.784C76.745 13.736 76.841 13.624 76.889 13.528ZM77.001 12.904C77.001 12.984 77.081 12.936 77.209 12.776C77.321 12.616 77.321 12.616 77.161 12.744C77.065 12.808 77.001 12.888 77.001 12.904ZM77.305 12.968C77.417 12.808 77.417 12.808 77.257 12.936C77.161 13 77.097 13.08 77.097 13.096C77.097 13.176 77.177 13.128 77.305 12.968ZM77.689 12.104C77.801 11.944 77.801 11.944 77.641 12.056C77.561 12.136 77.481 12.216 77.481 12.232C77.481 12.312 77.561 12.264 77.689 12.104ZM77.913 11.688C77.817 11.8 77.753 11.88 77.785 11.88C77.817 11.88 77.913 11.8 78.009 11.688C78.105 11.576 78.169 11.496 78.137 11.496C78.105 11.496 78.009 11.576 77.913 11.688ZM78.105 11.88C78.201 11.784 78.265 11.688 78.233 11.688C78.201 11.688 78.105 11.784 78.009 11.88C77.913 11.992 77.849 12.072 77.881 12.072C77.913 12.072 78.009 11.992 78.105 11.88ZM79.161 10.504C79.209 10.552 79.209 10.52 79.177 10.456C79.113 10.36 79.065 10.36 78.969 10.44C78.889 10.504 78.825 10.584 78.825 10.6C78.825 10.632 78.889 10.6 78.953 10.552C79.033 10.488 79.129 10.472 79.161 10.504ZM82.009 9.992C82.009 9.88 80.297 12.888 80.121 13.32C79.897 13.864 79.977 13.8 80.281 13.208C80.441 12.904 80.889 12.072 81.289 11.352C81.689 10.648 82.009 10.04 82.009 9.992ZM81.193 10.248C81.065 10.504 80.969 10.728 81.001 10.728C81.017 10.728 81.161 10.504 81.289 10.248C81.417 9.976 81.513 9.752 81.481 9.752C81.465 9.752 81.321 9.976 81.193 10.248ZM80.473 11.544C80.297 11.864 80.201 12.088 80.249 12.024C80.297 11.976 80.489 11.672 80.665 11.352C80.841 11.032 80.937 10.824 80.889 10.872C80.825 10.92 80.633 11.224 80.473 11.544ZM80.041 12.344C79.993 12.472 79.993 12.488 80.089 12.392C80.169 12.328 80.185 12.248 80.169 12.216C80.137 12.184 80.073 12.248 80.041 12.344ZM79.465 14.344L79.401 14.632L79.513 14.344C79.577 14.184 79.753 13.752 79.913 13.384C80.073 13 80.489 12.2 80.825 11.592C81.177 10.984 81.561 10.312 81.673 10.104C81.801 9.88 81.929 9.608 81.961 9.464C81.993 9.336 81.849 9.528 81.657 9.912C81.449 10.28 81.001 11.064 80.681 11.64C80.057 12.744 79.561 13.848 79.465 14.344Z" fill="#785B06"/>
<path d="M74.359 11.688C74.791 11.288 74.727 11.432 73.783 12.904C72.343 15.128 71.143 16.648 70.503 17.08C70.119 17.336 69.815 17.272 69.319 16.824C68.743 16.328 68.567 15.896 68.567 15.032V14.36L67.623 15.304C66.711 16.232 66.087 16.664 65.671 16.664C65.431 16.664 64.903 16.408 64.903 16.28C64.903 16.248 64.775 16.152 64.615 16.088C64.215 15.912 63.847 15.4 63.719 14.808C63.527 13.832 64.087 12.024 65.015 10.632C66.103 8.99999 67.943 7.68799 69.159 7.68799C69.879 7.68799 70.023 7.76799 70.759 8.53599C71.367 9.15999 71.543 9.47999 71.431 9.76799C71.383 9.86399 71.447 9.99199 71.607 10.12C71.751 10.232 71.847 10.408 71.847 10.552C71.847 10.696 71.559 11.448 71.207 12.216C70.231 14.36 70.007 14.984 69.927 15.704C69.895 16.072 69.879 16.392 69.895 16.424C69.975 16.488 70.439 16.152 70.967 15.656C71.239 15.384 72.103 14.312 72.887 13.256C73.671 12.216 74.343 11.352 74.391 11.352C74.423 11.352 74.375 11.496 74.247 11.672L74.039 11.976L74.359 11.688ZM70.487 11.976C70.487 11.928 70.407 12.04 70.311 12.216C70.199 12.408 70.119 12.6 70.119 12.664C70.119 12.712 70.199 12.6 70.311 12.424C70.407 12.232 70.487 12.04 70.487 11.976ZM66.215 10.776C66.055 10.904 65.815 11.256 65.895 11.256C65.911 11.256 66.023 11.112 66.151 10.952C66.295 10.744 66.327 10.68 66.215 10.776ZM64.519 14.296C64.519 14.408 64.647 14.12 64.791 13.672C64.935 13.224 65.239 12.504 65.447 12.104C65.671 11.688 65.783 11.4 65.719 11.448C65.415 11.704 64.519 13.848 64.519 14.296ZM64.983 13.656C64.663 14.584 64.791 14.424 65.239 13.352C65.463 12.776 65.799 12.088 65.975 11.816C66.151 11.528 66.423 11.128 66.583 10.92C66.791 10.648 66.807 10.584 66.663 10.728C66.183 11.128 65.351 12.6 64.983 13.656ZM68.679 13.112C68.791 12.968 68.791 12.952 68.647 13.08C68.551 13.16 68.471 13.224 68.471 13.256C68.471 13.336 68.551 13.272 68.679 13.112ZM66.423 14.744C67.479 13.896 70.407 10.072 70.407 9.55999C70.407 9.35199 70.055 9.43199 69.287 9.81599C68.503 10.216 67.655 11 67.031 11.88C66.407 12.776 65.607 14.44 65.511 15.016L65.447 15.448L65.735 15.272C65.879 15.176 66.199 14.936 66.423 14.744ZM69.303 14.52C69.335 14.488 69.335 14.392 69.303 14.328C69.287 14.248 69.255 14.28 69.255 14.392C69.255 14.488 69.271 14.552 69.303 14.52ZM69.367 14.056C69.399 14.024 69.527 13.72 69.671 13.352C69.943 12.648 69.911 12.472 69.639 13.112C69.463 13.544 69.287 14.136 69.367 14.056ZM69.735 13.624C69.735 13.672 69.767 13.656 69.831 13.576C69.879 13.496 69.911 13.384 69.911 13.336C69.911 13.288 69.879 13.304 69.831 13.384C69.767 13.464 69.735 13.576 69.735 13.624ZM71.303 16.008C71.335 15.96 71.303 15.928 71.223 15.928C71.143 15.928 71.111 15.96 71.143 16.008C71.159 16.04 71.207 16.088 71.223 16.088C71.239 16.088 71.287 16.04 71.303 16.008ZM71.479 15.624C71.591 15.48 71.591 15.464 71.447 15.592C71.351 15.656 71.271 15.736 71.271 15.752C71.271 15.832 71.351 15.784 71.479 15.624ZM73.495 12.824C73.623 12.68 73.623 12.664 73.463 12.792C73.303 12.92 73.255 13 73.335 13C73.351 13 73.431 12.92 73.495 12.824ZM73.975 12.168C74.103 11.992 74.103 11.992 73.943 12.12C73.863 12.184 73.783 12.296 73.783 12.344C73.783 12.408 73.799 12.424 73.799 12.408C73.815 12.392 73.895 12.28 73.975 12.168Z" fill="#785B06"/>
<path d="M66.6612 4.45599C68.4212 4.34399 69.9892 5.06399 69.9732 5.99199C69.9732 6.19999 69.9573 6.18399 69.8293 5.94399C69.3973 5.15999 67.7332 5.07999 65.5092 5.75199L65.0292 5.87999L64.0852 7.83199C62.3892 11.32 61.5892 13.368 61.0292 15.688C60.9012 16.232 60.8052 16.84 60.8212 17.032L60.8532 17.368L61.3332 17C61.9572 16.536 62.9492 15.4 64.0212 13.976L64.1972 13.736L64.0372 14.008C63.9572 14.168 63.9092 14.312 63.9412 14.344C63.9892 14.376 64.0372 14.36 64.0532 14.312C64.0692 14.248 64.1652 14.12 64.2452 14.024C64.3252 13.912 64.2452 14.088 64.0692 14.408C62.8692 16.648 61.6052 18.232 61.0292 18.232C60.8692 18.232 60.6292 18.136 60.4852 18.024C60.3572 17.928 60.1972 17.832 60.1492 17.832C59.9732 17.832 59.3812 17.096 59.2532 16.712C59.0292 16.088 59.0932 14.568 59.3812 13.48C59.7492 12.12 60.1012 11.288 61.2852 8.88799L62.3412 6.74399L62.0372 6.82399C61.3492 6.96799 60.4852 6.88799 60.0372 6.64799C59.5092 6.35999 58.7092 5.23999 58.6132 4.69599C58.5332 4.19999 58.7732 4.19999 59.1092 4.71199C59.6052 5.47999 60.4692 5.76799 61.7332 5.59199C63.2052 5.38399 63.0452 5.51199 64.2292 3.52799C64.8212 2.56799 65.4452 1.60799 65.6212 1.41599C65.9252 1.06399 66.3092 0.919991 66.3092 1.15999C66.3092 1.22399 66.4692 1.39999 66.6612 1.57599C67.0132 1.87999 67.0132 1.87999 66.8853 2.26399C66.8212 2.47199 66.5652 3.03199 66.3252 3.51199C66.0692 3.99199 65.8612 4.40799 65.8452 4.43999C65.8292 4.48799 66.1972 4.48799 66.6612 4.45599ZM63.7492 14.504C63.6692 14.6 63.6052 14.728 63.6052 14.792C63.6052 14.904 63.6532 14.856 63.7812 14.552C63.8932 14.328 63.8932 14.328 63.7492 14.504ZM60.0372 13.736C59.9892 13.848 59.9572 14.024 59.9572 14.12C59.9572 14.28 59.9732 14.264 60.0372 14.072C60.0692 13.944 60.1172 13.768 60.1172 13.688C60.1172 13.608 60.0852 13.624 60.0372 13.736ZM59.8452 14.504C59.8452 14.6 59.8612 14.664 59.8932 14.632C59.9252 14.6 59.9412 14.52 59.9092 14.44C59.8772 14.36 59.8452 14.392 59.8452 14.504ZM60.0372 15.32C60.1172 14.824 60.3252 14.024 60.4692 13.544C60.8372 12.28 61.4292 10.92 62.5812 8.55199C63.1252 7.39999 63.5572 6.45599 63.5252 6.45599C63.4772 6.45599 63.3012 6.75999 63.1252 7.12799C62.9492 7.49599 62.7732 7.75199 62.7252 7.70399C62.6932 7.62399 62.6452 7.65599 62.6132 7.75199C62.5652 7.84799 62.5812 7.87999 62.6452 7.84799C62.8052 7.75199 62.8692 7.59199 61.6532 10.216C60.9972 11.608 60.7252 12.296 60.4212 13.256C60.1332 14.2 59.8292 15.64 59.8452 16.04C59.8612 16.152 59.9412 15.832 60.0372 15.32ZM63.2052 7.84799C63.6212 6.99999 63.9572 6.29599 63.9412 6.27999C63.8932 6.23199 62.5972 8.82399 61.8772 10.408C61.2212 11.864 60.5012 13.88 60.3892 14.552C60.3092 14.968 60.3572 14.856 60.8532 13.304C61.2532 12.072 62.0852 10.152 63.2052 7.84799ZM66.2613 2.10399C66.2292 2.10399 66.1172 2.27999 66.0212 2.48799C65.9092 2.71199 65.8452 2.88799 65.8612 2.88799C65.8932 2.88799 66.0052 2.71199 66.1172 2.48799C66.2132 2.27999 66.2932 2.10399 66.2613 2.10399ZM65.0932 4.32799C65.2372 4.05599 65.3333 3.84799 65.3013 3.84799C65.2693 3.84799 64.7572 4.71199 64.7572 4.77599C64.7572 4.90399 64.8852 4.74399 65.0932 4.32799ZM64.4532 4.87199C64.5012 4.83999 64.9172 4.16799 65.3492 3.38399C65.7972 2.59999 66.1812 1.92799 66.1972 1.86399C66.2612 1.65599 65.7333 2.48799 65.3013 3.23999C64.4373 4.75999 64.3572 4.93599 64.4532 4.87199ZM65.6372 3.36799C65.7332 3.14399 65.8132 2.98399 65.7812 2.98399C65.7492 2.98399 65.6372 3.14399 65.5412 3.36799C65.4292 3.57599 65.3652 3.75199 65.3812 3.75199C65.4132 3.75199 65.5252 3.57599 65.6372 3.36799Z" fill="#785B06"/>
<path d="M56.5933 16.84C55.9373 17.128 55.6173 17.064 55.0253 16.472C54.4653 15.912 54.2893 15.528 54.2893 14.776C54.2893 13.928 54.9773 11.992 55.7133 10.792C55.8893 10.488 56.0333 10.2 56.0013 10.184C55.9213 10.104 54.6093 11.448 53.9213 12.312C53.5853 12.744 53.0413 13.48 52.7213 13.96C51.0733 16.408 50.5933 16.904 50.0973 16.568C49.9693 16.488 49.8573 16.376 49.8573 16.328C49.8573 16.28 49.7453 16.184 49.6013 16.104C48.8813 15.752 48.5613 14.84 48.7053 13.576C48.8973 12.056 50.4173 9.448 51.4253 8.936C51.7613 8.744 52.1293 8.824 52.2253 9.08C52.2573 9.192 52.3053 9.272 52.3533 9.272C52.3853 9.272 52.5613 9.416 52.7373 9.56C53.1373 9.912 53.1053 10.104 52.5453 11.064C51.8093 12.328 50.8493 14.36 50.9453 14.456C50.9773 14.472 51.4733 13.816 52.0813 12.968C53.6973 10.696 54.3533 9.896 55.2493 9C56.5773 7.688 57.1533 7.36799 57.5053 7.784C57.5693 7.87999 57.8573 8.184 58.1293 8.47199C58.6093 8.952 58.6413 9.016 58.6413 9.48C58.6413 9.88 58.5293 10.152 58.0013 11.192C57.6493 11.864 57.1693 12.728 56.9293 13.096C56.4173 13.944 55.8733 15.176 55.7773 15.72C55.7293 16.072 55.7453 16.136 55.8893 16.136C56.3693 16.136 57.8093 14.92 58.9453 13.576C59.1213 13.352 59.2813 13.16 59.3133 13.144C59.3453 13.112 59.6173 12.776 59.9213 12.392C60.5293 11.64 60.7053 11.48 60.5933 11.752C60.5293 11.912 60.5453 11.912 60.6893 11.8C60.9933 11.56 60.8653 11.816 60.2733 12.648C59.9693 13.112 59.5053 13.784 59.2493 14.152C58.6733 14.984 57.0733 16.616 56.5933 16.84ZM59.8893 12.68C59.5533 13.112 59.4093 13.352 59.5693 13.192C59.7133 13.032 59.9693 12.728 60.1293 12.504C60.2893 12.296 60.4493 12.088 60.5133 12.056C60.5613 12.024 60.5773 11.96 60.5453 11.928C60.5133 11.896 60.2253 12.232 59.8893 12.68ZM59.0253 13.88C58.8653 14.024 58.8013 14.328 58.9453 14.232C58.9933 14.2 59.0093 14.152 58.9773 14.12C58.9453 14.088 58.9773 14.008 59.0413 13.912C59.1373 13.784 59.1373 13.784 59.0253 13.88ZM58.4973 14.472C58.4813 14.52 58.5133 14.552 58.5933 14.552C58.6733 14.552 58.7373 14.536 58.7373 14.52C58.7373 14.44 58.5453 14.408 58.4973 14.472ZM58.1933 14.792C58.1133 14.84 58.0493 14.92 58.0493 14.952C58.0493 14.968 58.1133 14.952 58.1933 14.888C58.2573 14.824 58.3533 14.808 58.4013 14.856C58.4333 14.888 58.4333 14.872 58.4013 14.792C58.3533 14.696 58.3053 14.696 58.1933 14.792ZM57.1693 15.992C57.1213 16.072 57.0893 16.136 57.1213 16.136C57.1373 16.136 57.2173 16.072 57.2813 15.992C57.3613 15.88 57.3613 15.832 57.2653 15.784C57.2013 15.752 57.1693 15.752 57.2173 15.784C57.2493 15.832 57.2333 15.928 57.1693 15.992ZM49.6173 13.144C49.4893 13.56 49.6173 13.304 49.9853 12.488C50.1613 12.04 50.3053 11.688 50.2733 11.688C50.2253 11.688 49.7133 12.792 49.6173 13.144ZM49.8573 13.624C50.0173 13.176 50.2893 12.488 50.4813 12.104C50.6733 11.72 51.0253 11.112 51.2493 10.776C51.4893 10.424 51.6333 10.152 51.6013 10.152C51.4733 10.152 50.5293 11.656 50.1773 12.424C49.8733 13.112 49.5533 14.104 49.5693 14.344C49.5693 14.392 49.6973 14.072 49.8573 13.624ZM50.1613 13.624C50.2253 13.48 50.4333 13.032 50.6413 12.6C50.8333 12.184 51.2333 11.448 51.5373 10.984C51.8413 10.504 52.0653 10.104 52.0333 10.072C51.9853 10.024 51.2973 11.064 50.8973 11.784C50.6253 12.264 50.0493 13.656 50.0493 13.784C50.0653 13.832 50.1133 13.752 50.1613 13.624ZM52.0173 14.344C52.0493 14.248 52.0333 14.216 51.9693 14.248C51.9213 14.28 51.8733 14.344 51.8733 14.392C51.8733 14.536 51.9533 14.504 52.0173 14.344ZM52.5453 13.528C52.6253 13.4 52.6093 13.368 52.5133 13.368C52.4333 13.368 52.4013 13.4 52.4173 13.448C52.4493 13.496 52.4173 13.608 52.3533 13.688C52.2573 13.8 52.2573 13.832 52.3373 13.784C52.4013 13.736 52.4973 13.624 52.5453 13.528ZM52.6573 12.904C52.6573 12.984 52.7373 12.936 52.8653 12.776C52.9773 12.616 52.9773 12.616 52.8173 12.744C52.7213 12.808 52.6573 12.888 52.6573 12.904ZM52.9613 12.968C53.0733 12.808 53.0733 12.808 52.9133 12.936C52.8173 13 52.7533 13.08 52.7533 13.096C52.7533 13.176 52.8333 13.128 52.9613 12.968ZM53.3453 12.104C53.4573 11.944 53.4573 11.944 53.2973 12.056C53.2173 12.136 53.1373 12.216 53.1373 12.232C53.1373 12.312 53.2173 12.264 53.3453 12.104ZM53.5693 11.688C53.4733 11.8 53.4093 11.88 53.4413 11.88C53.4733 11.88 53.5693 11.8 53.6653 11.688C53.7613 11.576 53.8253 11.496 53.7933 11.496C53.7613 11.496 53.6653 11.576 53.5693 11.688ZM53.7613 11.88C53.8573 11.784 53.9213 11.688 53.8893 11.688C53.8573 11.688 53.7613 11.784 53.6653 11.88C53.5693 11.992 53.5053 12.072 53.5373 12.072C53.5693 12.072 53.6653 11.992 53.7613 11.88ZM54.8173 10.504C54.8653 10.552 54.8653 10.52 54.8333 10.456C54.7693 10.36 54.7213 10.36 54.6253 10.44C54.5453 10.504 54.4813 10.584 54.4813 10.6C54.4813 10.632 54.5453 10.6 54.6093 10.552C54.6893 10.488 54.7853 10.472 54.8173 10.504ZM57.6653 9.992C57.6653 9.88 55.9533 12.888 55.7773 13.32C55.5533 13.864 55.6333 13.8 55.9373 13.208C56.0973 12.904 56.5453 12.072 56.9453 11.352C57.3453 10.648 57.6653 10.04 57.6653 9.992ZM56.8493 10.248C56.7213 10.504 56.6253 10.728 56.6573 10.728C56.6733 10.728 56.8173 10.504 56.9453 10.248C57.0733 9.976 57.1693 9.752 57.1373 9.752C57.1213 9.752 56.9773 9.976 56.8493 10.248ZM56.1293 11.544C55.9533 11.864 55.8573 12.088 55.9053 12.024C55.9533 11.976 56.1453 11.672 56.3213 11.352C56.4973 11.032 56.5933 10.824 56.5453 10.872C56.4813 10.92 56.2893 11.224 56.1293 11.544ZM55.6973 12.344C55.6493 12.472 55.6493 12.488 55.7453 12.392C55.8253 12.328 55.8413 12.248 55.8253 12.216C55.7933 12.184 55.7293 12.248 55.6973 12.344ZM55.1213 14.344L55.0573 14.632L55.1693 14.344C55.2333 14.184 55.4093 13.752 55.5693 13.384C55.7293 13 56.1453 12.2 56.4813 11.592C56.8333 10.984 57.2173 10.312 57.3293 10.104C57.4573 9.88 57.5853 9.608 57.6173 9.464C57.6493 9.336 57.5053 9.528 57.3133 9.912C57.1053 10.28 56.6573 11.064 56.3373 11.64C55.7133 12.744 55.2173 13.848 55.1213 14.344Z" fill="#785B06"/>
<path d="M39.2853 16.248C38.4373 15.528 38.1974 14.36 38.6134 12.984C39.3014 10.776 41.3814 8.42399 42.4534 8.63199C42.6934 8.67999 42.7894 8.63199 43.0454 8.35999C43.6374 7.70399 44.7414 7.41599 45.3814 7.75199C45.7814 7.95999 46.6294 8.74399 46.7894 9.048C47.1414 9.70399 46.8854 11.064 46.1334 12.6L45.7494 13.352L46.2614 13.32C47.1574 13.24 48.3734 12.536 49.4774 11.464C49.7014 11.24 50.1014 10.856 50.3574 10.616C50.7254 10.248 50.8534 10.168 50.9334 10.264C51.1094 10.44 51.0934 10.504 50.6294 11.256C50.0054 12.232 48.9173 13.128 47.6374 13.736C47.1413 13.96 46.8374 14.04 46.1494 14.072L45.2694 14.136L44.7734 14.776C43.2374 16.744 41.7653 17.64 40.7093 17.256C40.3733 17.128 40.1333 16.968 39.2853 16.248ZM50.5174 10.76C50.4054 10.888 50.3893 10.92 50.4853 10.856C50.5653 10.792 50.6614 10.76 50.6933 10.776C50.7093 10.808 50.7414 10.76 50.7414 10.68C50.7414 10.504 50.7414 10.504 50.5174 10.76ZM49.8294 11.72C49.8134 11.832 49.8293 11.896 49.8613 11.864C49.8933 11.832 49.9254 11.736 49.9414 11.64C49.9574 11.528 50.0213 11.448 50.0693 11.448C50.1333 11.448 50.1974 11.432 50.2454 11.384C50.2774 11.352 50.2294 11.336 50.1494 11.352C49.9574 11.384 49.8614 11.464 49.8294 11.72ZM49.1094 12.44C48.9494 12.632 49.0774 12.584 49.2534 12.392C49.3974 12.232 49.3973 12.216 49.2694 12.216C49.1894 12.216 49.1573 12.232 49.1733 12.264C49.2053 12.28 49.1734 12.36 49.1094 12.44ZM46.0534 10.392C46.0374 10.488 46.0694 10.536 46.1014 10.504C46.1334 10.472 46.1334 10.392 46.1014 10.328C46.0694 10.248 46.0534 10.28 46.0534 10.392ZM45.8454 11.064C45.7334 11.336 45.7334 11.48 45.8454 11.304C45.8934 11.224 45.9414 11.096 45.9414 11.016C45.9254 10.92 45.9094 10.936 45.8454 11.064ZM45.4614 12.664C45.8614 11.864 45.8294 11.8 45.4134 12.552C45.0614 13.208 45.0453 13.24 45.1253 13.24C45.1413 13.24 45.3014 12.984 45.4614 12.664ZM45.7174 11.528C45.6854 11.496 45.6214 11.592 45.5734 11.72C45.5094 11.864 45.3654 12.2 45.2214 12.456C45.0933 12.728 44.9973 12.952 45.0293 12.952C45.0453 12.952 45.2214 12.648 45.4134 12.264C45.6054 11.88 45.7334 11.56 45.7174 11.528ZM44.3094 9.62399C43.4614 10.392 43.1573 11.272 43.4933 12.056C43.6533 12.472 44.1013 12.968 44.2293 12.888C44.2773 12.856 44.4534 12.552 44.6294 12.2C45.2374 11 45.7814 9.17599 45.5894 8.98399C45.4613 8.87199 44.7574 9.22399 44.3094 9.62399ZM42.9494 10.184C42.9494 10.296 42.9334 10.312 43.3174 9.736C43.4774 9.496 43.6054 9.28799 43.5734 9.28799C43.5094 9.28799 42.9494 10.072 42.9494 10.184ZM42.3893 11.704L42.1014 11.176L41.7814 11.8C41.1734 13 40.9334 13.544 40.7894 14.04C40.5494 14.856 40.4373 15.544 40.5013 15.848C40.5653 16.136 40.5813 16.152 40.9173 16.088C41.1093 16.056 41.3814 15.96 41.5254 15.88C42.0214 15.624 42.9334 14.792 43.4134 14.136L43.9093 13.48L43.2853 12.856C42.9493 12.504 42.5493 11.992 42.3893 11.704ZM41.5894 10.536C42.0854 9.89599 42.1494 9.75199 41.7494 10.2C41.0614 10.952 40.1333 12.664 39.8133 13.72C39.6853 14.152 39.8294 13.88 40.1014 13.192C40.4374 12.36 41.1254 11.112 41.5894 10.536ZM41.3654 10.248C41.2694 10.248 40.3414 11.64 40.0534 12.184C39.7494 12.792 39.3813 13.944 39.3973 14.232C39.3973 14.44 39.4133 14.44 39.4453 14.248C39.4773 14.152 39.5734 13.784 39.6854 13.432C39.9574 12.6 40.4694 11.592 40.9974 10.856C41.2214 10.52 41.3974 10.248 41.3654 10.248ZM39.6214 12.568C39.5414 12.696 39.4933 12.856 39.4933 12.904C39.4933 12.952 39.5414 12.888 39.6214 12.76C39.7014 12.632 39.7653 12.472 39.7653 12.424C39.7653 12.36 39.7014 12.424 39.6214 12.568ZM39.3813 13.144C39.3333 13.224 39.2854 13.352 39.3014 13.432C39.3014 13.592 39.4614 13.272 39.4774 13.096C39.4774 13.048 39.4293 13.064 39.3813 13.144Z" fill="#785B06"/>
<path d="M28.5688 10.232C28.4728 9.95998 28.6808 9.81598 29.5448 9.55998C29.9128 9.46398 30.2648 9.35198 30.3288 9.33598C30.3928 9.31998 30.6008 8.99998 30.7928 8.64798C31.6248 7.12798 32.5048 5.70398 33.2888 4.61598L34.1048 3.44798L33.2728 3.33598C32.2328 3.17598 31.2728 2.74398 30.9528 2.24798C30.7608 1.95998 30.7288 1.83198 30.7928 1.43198C30.8408 0.935982 30.9048 0.599982 30.9368 0.503983C30.9528 0.487983 30.9528 0.423983 30.9528 0.391982C30.9208 0.231982 31.4808 0.215983 32.6488 0.359982C34.2648 0.551984 37.2248 0.551984 39.4168 0.359982C41.5608 0.151982 44.7768 0.199982 45.3368 0.439982C45.7688 0.631984 45.9768 0.935982 46.0248 1.46398C46.0728 2.16798 46.0088 2.21598 44.3768 2.27998C43.5928 2.31198 42.4088 2.42398 41.7368 2.53598C41.0808 2.64798 39.7048 2.85598 38.6808 3.01598C37.6568 3.15998 36.8088 3.30398 36.7928 3.31998C36.7768 3.33598 36.4728 3.87998 36.1048 4.51998C35.7528 5.14398 35.0008 6.39198 34.4408 7.27198C33.8968 8.15198 33.4488 8.91998 33.4488 8.96798C33.4488 9.03198 34.3928 9.11198 35.6888 9.15998C37.8328 9.25598 38.3608 9.33598 38.3608 9.57598C38.3608 9.63998 37.9128 9.67198 37.2888 9.67198C36.6328 9.67198 35.5128 9.76798 34.5048 9.91198C33.1128 10.12 32.7928 10.2 32.6488 10.36C32.4248 10.632 31.2408 13 30.6968 14.264C29.8808 16.152 29.2088 18.44 29.2088 19.304C29.1928 19.64 29.2568 19.672 29.6088 19.512C29.7688 19.448 29.9128 19.448 30.0888 19.512C30.3128 19.592 30.3448 19.64 30.2808 19.832C30.0728 20.376 29.0808 20.68 28.7448 20.296C28.6488 20.184 28.5208 20.104 28.4728 20.104C28.2328 20.104 27.8168 19.656 27.5928 19.192C27.0488 18.008 27.5288 15.56 28.9208 12.392C29.2408 11.688 29.4968 11.096 29.4968 11.064C29.4968 11.048 29.4168 11.032 29.3368 11.032C29.2568 11.032 29.1608 10.952 29.1288 10.856C29.0488 10.648 28.8568 10.44 28.7288 10.44C28.6808 10.44 28.6008 10.36 28.5688 10.232ZM40.0568 1.70398C40.9528 1.59198 41.3848 1.49598 41.0168 1.52798C40.0088 1.59198 37.7848 1.86398 37.3528 1.95998C36.6808 2.10398 38.2488 1.95998 40.0568 1.70398ZM42.3288 1.44798C42.5688 1.44798 42.6648 1.43198 42.5368 1.39998C42.4248 1.38398 42.2328 1.38398 42.1048 1.39998C41.9928 1.43198 42.0888 1.44798 42.3288 1.44798ZM37.7848 1.51198C36.8248 1.62398 36.7608 1.63998 37.2888 1.65598C37.6248 1.65598 38.1848 1.62398 38.5368 1.57598C38.8888 1.52798 39.5608 1.43198 40.0408 1.36798C40.5048 1.30398 41.4808 1.22398 42.2008 1.19198C43.3368 1.12798 43.4168 1.11198 42.6968 1.09598C41.9448 1.09598 41.0328 1.15998 37.7848 1.51198ZM29.1608 13.864C29.1288 13.816 28.6168 15.176 28.6328 15.32C28.6328 15.368 28.7608 15.08 28.9208 14.648C29.0808 14.232 29.1928 13.88 29.1608 13.864ZM28.4728 15.752C28.4088 15.944 28.3448 16.152 28.3448 16.232C28.3448 16.312 28.4088 16.232 28.4728 16.04C28.5528 15.864 28.6008 15.64 28.6008 15.56C28.6008 15.48 28.5528 15.576 28.4728 15.752ZM28.2328 16.616C28.1368 16.952 28.1368 17.208 28.2328 16.968C28.2808 16.856 28.3128 16.68 28.3128 16.568C28.3128 16.424 28.2968 16.424 28.2328 16.616ZM28.8728 16.696C28.9048 16.664 28.9048 16.584 28.8728 16.504C28.8408 16.44 28.8248 16.456 28.8248 16.568C28.8248 16.664 28.8408 16.728 28.8728 16.696ZM35.7368 3.44798C35.7208 3.41598 35.5448 3.62398 35.3688 3.91198C35.1928 4.18398 34.6488 5.03198 34.1528 5.78398C33.2568 7.17598 32.1848 8.93598 32.1848 9.03198C32.1848 9.19198 32.2968 9.04798 32.6328 8.43998C32.9528 7.86398 33.6408 6.79198 35.2568 4.27998C35.5448 3.84798 35.7528 3.46398 35.7368 3.44798ZM32.4888 1.52798C32.6008 1.62398 33.6728 1.73598 34.5528 1.73598H35.5128L34.7928 1.67198C33.6088 1.54398 32.4568 1.47998 32.4888 1.52798ZM33.4488 2.05598C33.7848 2.11998 35.2408 2.18398 35.1768 2.11998C35.1448 2.08798 34.6808 2.05598 34.1208 2.02398C33.5608 2.00798 33.2568 2.00798 33.4488 2.05598ZM34.9368 3.73598C35.0328 3.59198 35.0648 3.51198 35.0008 3.54398C34.8888 3.60798 34.6648 3.97598 34.7288 3.97598C34.7608 3.97598 34.8568 3.86398 34.9368 3.73598ZM31.8648 8.39198C31.8008 8.53598 31.8168 8.53598 31.9128 8.43998C31.9768 8.37598 32.0088 8.29598 31.9768 8.27998C31.9448 8.24798 31.8968 8.29598 31.8648 8.39198ZM35.4008 3.39998C35.2408 3.39998 31.8008 8.75998 31.8008 9.01598C31.8008 9.20798 31.9128 9.04798 32.3928 8.19998C32.8248 7.43198 34.2808 5.15998 35.2088 3.81598C35.3528 3.59198 35.4488 3.39998 35.4008 3.39998ZM31.3848 10.568C31.2088 10.408 28.8888 15.784 28.9208 16.264C28.9208 16.328 29.0328 16.072 29.1608 15.704C29.2888 15.336 29.5608 14.648 29.7528 14.168C29.9448 13.688 30.3928 12.696 30.7608 11.96C31.1288 11.224 31.4168 10.6 31.3848 10.568ZM30.5048 10.904C30.4568 11.032 30.4728 11.048 30.5688 10.952C30.6328 10.888 30.6648 10.808 30.6328 10.776C30.6008 10.76 30.5368 10.808 30.5048 10.904ZM30.2168 11.48C30.1688 11.624 30.1848 11.624 30.2808 11.528C30.3448 11.464 30.3608 11.384 30.3448 11.368C30.3128 11.336 30.2488 11.384 30.2168 11.48ZM29.9768 11.992C29.8648 12.184 29.7848 12.376 29.7848 12.424C29.7848 12.472 29.8648 12.376 29.9768 12.184C30.0728 11.992 30.1528 11.8 30.1528 11.752C30.1528 11.704 30.0728 11.8 29.9768 11.992ZM29.6888 12.616C29.6248 12.648 29.5928 12.712 29.5928 12.776C29.5928 12.904 29.6568 12.872 29.7208 12.712C29.7528 12.632 29.7368 12.584 29.6888 12.616ZM30.9368 10.696C30.7768 10.792 29.7048 13.048 29.2088 14.36C28.7448 15.528 28.2328 17.432 28.2488 17.912C28.2488 18.088 28.3288 17.848 28.4248 17.4C28.5208 16.936 28.7128 16.2 28.8568 15.736C29.1448 14.744 29.9928 12.712 30.6168 11.48C30.8568 11.016 31.0008 10.648 30.9368 10.696Z" fill="#785B06"/>
<path d="M21.2965 11.688C21.7285 11.288 21.6645 11.432 20.7205 12.904C19.2805 15.128 18.0805 16.648 17.4405 17.08C17.0565 17.336 16.7525 17.272 16.2565 16.824C15.6805 16.328 15.5045 15.896 15.5045 15.032V14.36L14.5605 15.304C13.6485 16.232 13.0245 16.664 12.6085 16.664C12.3685 16.664 11.8405 16.408 11.8405 16.28C11.8405 16.248 11.7125 16.152 11.5525 16.088C11.1525 15.912 10.7845 15.4 10.6565 14.808C10.4645 13.832 11.0245 12.024 11.9525 10.632C13.0405 8.99999 14.8805 7.68799 16.0965 7.68799C16.8165 7.68799 16.9605 7.76799 17.6965 8.53599C18.3045 9.15999 18.4805 9.47999 18.3685 9.76799C18.3205 9.86399 18.3845 9.99199 18.5445 10.12C18.6885 10.232 18.7845 10.408 18.7845 10.552C18.7845 10.696 18.4965 11.448 18.1445 12.216C17.1685 14.36 16.9445 14.984 16.8645 15.704C16.8325 16.072 16.8165 16.392 16.8325 16.424C16.9125 16.488 17.3765 16.152 17.9045 15.656C18.1765 15.384 19.0405 14.312 19.8245 13.256C20.6085 12.216 21.2805 11.352 21.3285 11.352C21.3605 11.352 21.3125 11.496 21.1845 11.672L20.9765 11.976L21.2965 11.688ZM17.4245 11.976C17.4245 11.928 17.3445 12.04 17.2485 12.216C17.1365 12.408 17.0565 12.6 17.0565 12.664C17.0565 12.712 17.1365 12.6 17.2485 12.424C17.3445 12.232 17.4245 12.04 17.4245 11.976ZM13.1525 10.776C12.9925 10.904 12.7525 11.256 12.8325 11.256C12.8485 11.256 12.9605 11.112 13.0885 10.952C13.2325 10.744 13.2645 10.68 13.1525 10.776ZM11.4565 14.296C11.4565 14.408 11.5845 14.12 11.7285 13.672C11.8725 13.224 12.1765 12.504 12.3845 12.104C12.6085 11.688 12.7205 11.4 12.6565 11.448C12.3525 11.704 11.4565 13.848 11.4565 14.296ZM11.9205 13.656C11.6005 14.584 11.7285 14.424 12.1765 13.352C12.4005 12.776 12.7365 12.088 12.9125 11.816C13.0885 11.528 13.3605 11.128 13.5205 10.92C13.7285 10.648 13.7445 10.584 13.6005 10.728C13.1205 11.128 12.2885 12.6 11.9205 13.656ZM15.6165 13.112C15.7285 12.968 15.7285 12.952 15.5845 13.08C15.4885 13.16 15.4085 13.224 15.4085 13.256C15.4085 13.336 15.4885 13.272 15.6165 13.112ZM13.3605 14.744C14.4165 13.896 17.3445 10.072 17.3445 9.55999C17.3445 9.35199 16.9925 9.43199 16.2245 9.81599C15.4405 10.216 14.5925 11 13.9685 11.88C13.3445 12.776 12.5445 14.44 12.4485 15.016L12.3845 15.448L12.6725 15.272C12.8165 15.176 13.1365 14.936 13.3605 14.744ZM16.2405 14.52C16.2725 14.488 16.2725 14.392 16.2405 14.328C16.2245 14.248 16.1925 14.28 16.1925 14.392C16.1925 14.488 16.2085 14.552 16.2405 14.52ZM16.3045 14.056C16.3365 14.024 16.4645 13.72 16.6085 13.352C16.8805 12.648 16.8485 12.472 16.5765 13.112C16.4005 13.544 16.2245 14.136 16.3045 14.056ZM16.6725 13.624C16.6725 13.672 16.7045 13.656 16.7685 13.576C16.8165 13.496 16.8485 13.384 16.8485 13.336C16.8485 13.288 16.8165 13.304 16.7685 13.384C16.7045 13.464 16.6725 13.576 16.6725 13.624ZM18.2405 16.008C18.2725 15.96 18.2405 15.928 18.1605 15.928C18.0805 15.928 18.0485 15.96 18.0805 16.008C18.0965 16.04 18.1445 16.088 18.1605 16.088C18.1765 16.088 18.2245 16.04 18.2405 16.008ZM18.4165 15.624C18.5285 15.48 18.5285 15.464 18.3845 15.592C18.2885 15.656 18.2085 15.736 18.2085 15.752C18.2085 15.832 18.2885 15.784 18.4165 15.624ZM20.4325 12.824C20.5605 12.68 20.5605 12.664 20.4005 12.792C20.2405 12.92 20.1925 13 20.2725 13C20.2885 13 20.3685 12.92 20.4325 12.824ZM20.9125 12.168C21.0405 11.992 21.0405 11.992 20.8805 12.12C20.8005 12.184 20.7205 12.296 20.7205 12.344C20.7205 12.408 20.7365 12.424 20.7365 12.408C20.7525 12.392 20.8325 12.28 20.9125 12.168Z" fill="#785B06"/>
<path d="M3.79198 20.104C4.19198 19.992 4.49598 19.864 4.49598 19.816C4.49598 19.784 4.31998 19.416 4.11198 19C3.74398 18.296 3.72798 18.216 3.72798 17.368C3.77598 15.048 4.03198 13.992 4.91198 11.56C6.07998 8.32799 7.21598 5.976 8.55998 3.96C10.208 1.48 11.456 0.231995 12.304 0.231995C12.528 0.231995 12.64 0.311995 13.008 0.727995C13.072 0.807995 13.248 0.983995 13.408 1.128C13.6 1.304 13.712 1.496 13.712 1.656C13.712 1.976 13.216 2.808 11.824 4.856C9.03998 8.984 7.31198 12.568 6.44798 17.016C6.25598 17.736 5.95198 19.56 5.98398 19.608C6.01598 19.624 6.54398 19.576 7.16798 19.48C8.70398 19.256 12.736 19.4 14.016 19.32C14.176 19.304 14.928 19.464 15.088 19.592C15.28 19.736 15.232 20.072 15.04 20.12C14.896 20.152 14.864 20.232 14.896 20.472C14.976 21.048 14.864 21.08 13.28 21.288C10.992 21.592 9.96798 21.448 7.29598 21.896C5.48798 22.2 3.93598 22.52 2.51198 22.904C1.26398 23.24 0.735981 23.272 0.511981 23.016C0.287981 22.776 0.303981 22.52 0.543981 22.312C0.655981 22.216 0.719981 22.088 0.687981 22.04C0.655981 21.976 0.671981 21.944 0.735981 21.944C0.799981 21.944 0.815981 21.864 0.783981 21.752C0.639981 21.32 1.75998 20.696 3.79198 20.104ZM13.984 20.088C13.888 20.104 13.968 20.136 14.16 20.136C14.336 20.136 14.416 20.104 14.32 20.088C14.224 20.056 14.08 20.056 13.984 20.088ZM13.84 20.136C13.664 20.152 13.808 20.168 14.144 20.168C14.496 20.168 13.68 20.008 14.464 20.136C14.288 20.104 14 20.104 13.84 20.136ZM10.576 20.376C9.99998 20.456 10.208 20.456 11.632 20.424C12.624 20.408 14.752 20.568 14.24 20.472C13.744 20.376 14.176 20.424 14.24 20.424C14.352 20.44 14.352 20.408 14.272 20.328C14.128 20.184 11.536 20.248 10.576 20.376ZM9.29598 20.52C9.18398 20.536 9.26398 20.568 9.47198 20.568C9.67998 20.568 9.77598 20.536 9.67998 20.52C9.59998 20.488 9.42398 20.488 9.29598 20.52ZM5.90398 13.976C5.93598 13.88 5.98398 13.72 5.98398 13.64C5.98398 13.56 5.95198 13.576 5.90398 13.688C5.85598 13.8 5.80798 13.944 5.80798 14.024C5.80798 14.12 5.83998 14.104 5.90398 13.976ZM12.56 1.672C11.568 2.728 9.75998 5.352 8.68798 7.272C7.87198 8.76 6.38398 12.04 6.38398 12.36C6.38398 12.488 6.46398 12.328 6.91198 11.272C8.36798 7.912 9.72798 5.56 11.76 2.872C12.896 1.368 13.04 1.16 12.56 1.672ZM11.856 1.912C11.36 2.456 10.368 3.736 9.82398 4.568C9.51998 5.032 9.23198 5.432 9.19998 5.496C9.15198 5.544 8.86398 6.04 8.55998 6.584C6.86398 9.592 5.23198 13.752 4.94398 16.728C4.91198 16.968 5.03998 16.616 5.26398 14.904C5.48798 13.176 5.74398 13.256 5.93598 12.728C7.35998 8.904 9.08798 5.64 11.2 2.872C12.112 1.688 12.24 1.496 11.856 1.912ZM4.99198 14.264C4.95998 14.424 5.08798 14.12 5.27998 13.592C5.45598 13.064 5.77598 12.216 5.96798 11.72C6.71998 9.704 8.01598 6.984 8.97598 5.464C9.24798 5.016 9.42398 4.68 9.37598 4.712C9.18398 4.84 7.88798 7.112 7.19998 8.552C6.31998 10.408 5.16798 13.384 4.99198 14.264ZM4.84798 14.744C4.83198 14.84 4.86398 14.904 4.89598 14.872C4.92798 14.84 4.92798 14.76 4.89598 14.68C4.86398 14.616 4.84798 14.632 4.84798 14.744Z" fill="#785B06"/>
<path d="M106.292 21.7356C107.261 21.6739 108.124 22.0703 108.116 22.5813C108.116 22.6958 108.107 22.687 108.036 22.5549C107.798 22.1232 106.882 22.0791 105.658 22.4491L105.393 22.5196L104.874 23.5944C103.94 25.5149 103.499 26.6425 103.191 27.9199C103.121 28.2194 103.068 28.5542 103.077 28.6599L103.094 28.8449L103.358 28.6423C103.702 28.3868 104.248 27.7613 104.838 26.9773L104.935 26.8451L104.847 26.9949C104.803 27.083 104.777 27.1623 104.794 27.1799C104.821 27.1975 104.847 27.1887 104.856 27.1623C104.865 27.127 104.918 27.0565 104.962 27.0037C105.006 26.942 104.962 27.0389 104.865 27.2151C104.204 28.4485 103.508 29.3206 103.191 29.3206C103.103 29.3206 102.971 29.2677 102.892 29.2061C102.821 29.1532 102.733 29.1004 102.707 29.1004C102.61 29.1004 102.284 28.6951 102.213 28.4837C102.09 28.1401 102.125 27.3032 102.284 26.7042C102.486 25.9553 102.68 25.4972 103.332 24.1758L103.913 22.9953L103.746 23.0394C103.367 23.1187 102.892 23.0746 102.645 22.9425C102.354 22.7839 101.914 22.1672 101.861 21.8677C101.817 21.5946 101.949 21.5946 102.134 21.8765C102.407 22.2994 102.883 22.458 103.579 22.361C104.389 22.2465 104.301 22.317 104.953 21.2246C105.279 20.696 105.622 20.1675 105.719 20.0618C105.887 19.8679 106.098 19.7887 106.098 19.9208C106.098 19.956 106.186 20.0529 106.292 20.1499C106.486 20.3172 106.486 20.3172 106.415 20.5287C106.38 20.6432 106.239 20.9515 106.107 21.2158C105.966 21.4801 105.852 21.7091 105.843 21.7268C105.834 21.7532 106.037 21.7532 106.292 21.7356ZM104.689 27.268C104.645 27.3208 104.609 27.3913 104.609 27.4265C104.609 27.4882 104.636 27.4618 104.706 27.2944C104.768 27.1711 104.768 27.1711 104.689 27.268ZM102.645 26.8451C102.618 26.9068 102.601 27.0037 102.601 27.0565C102.601 27.1446 102.61 27.1358 102.645 27.0301C102.662 26.9596 102.689 26.8627 102.689 26.8187C102.689 26.7746 102.671 26.7834 102.645 26.8451ZM102.539 27.268C102.539 27.3208 102.548 27.3561 102.566 27.3384C102.583 27.3208 102.592 27.2768 102.574 27.2327C102.557 27.1887 102.539 27.2063 102.539 27.268ZM102.645 27.7173C102.689 27.4442 102.803 27.0037 102.883 26.7394C103.085 26.0434 103.411 25.2946 104.046 23.9908C104.345 23.3565 104.583 22.8368 104.565 22.8368C104.539 22.8368 104.442 23.0041 104.345 23.2068C104.248 23.4094 104.151 23.5503 104.125 23.5239C104.107 23.4799 104.081 23.4975 104.063 23.5503C104.037 23.6032 104.046 23.6208 104.081 23.6032C104.169 23.5503 104.204 23.4622 103.535 24.907C103.173 25.6734 103.024 26.0523 102.856 26.5808C102.698 27.1006 102.53 27.8934 102.539 28.1137C102.548 28.1754 102.592 27.9992 102.645 27.7173ZM104.389 23.6032C104.618 23.1363 104.803 22.7487 104.794 22.7399C104.768 22.7134 104.054 24.1406 103.658 25.0127C103.297 25.8144 102.9 26.9244 102.839 27.2944C102.795 27.5234 102.821 27.4618 103.094 26.6073C103.314 25.9289 103.772 24.8718 104.389 23.6032ZM106.072 20.4406C106.054 20.4406 105.992 20.5375 105.94 20.652C105.878 20.7753 105.843 20.8722 105.852 20.8722C105.869 20.8722 105.931 20.7753 105.992 20.652C106.045 20.5375 106.089 20.4406 106.072 20.4406ZM105.429 21.6651C105.508 21.5153 105.561 21.4008 105.543 21.4008C105.526 21.4008 105.244 21.8765 105.244 21.9118C105.244 21.9822 105.314 21.8941 105.429 21.6651ZM105.076 21.9646C105.103 21.947 105.332 21.577 105.57 21.1453C105.816 20.7137 106.028 20.3437 106.037 20.3084C106.072 20.1939 105.781 20.652 105.543 21.066C105.067 21.903 105.023 21.9999 105.076 21.9646ZM105.728 21.1365C105.781 21.0132 105.825 20.9251 105.807 20.9251C105.79 20.9251 105.728 21.0132 105.675 21.1365C105.614 21.251 105.578 21.3479 105.587 21.3479C105.605 21.3479 105.667 21.251 105.728 21.1365Z" fill="#785B06"/>
<path d="M97.7547 24.8542C98.5211 23.8234 99.7456 23.1275 100.424 23.3477C100.662 23.427 101.085 23.8499 101.164 24.0789C101.287 24.4577 101.076 24.9687 100.538 25.5854C99.7456 26.4927 98.8471 26.942 98.3449 26.6777C98.248 26.6337 98.1687 26.5985 98.1599 26.6073C98.0454 26.757 97.9485 27.1887 97.9309 27.6292C97.9132 28.0696 97.9309 28.193 98.0101 28.3516L98.107 28.5366L98.4771 28.5277C98.803 28.5277 98.9263 28.4925 99.314 28.3075C99.9835 27.9992 100.309 27.7261 101.596 26.4311C102.23 25.788 102.776 25.2682 102.803 25.2682C102.838 25.2682 102.873 25.3034 102.891 25.3475C102.908 25.3915 102.943 25.418 102.97 25.4004C103.04 25.3563 103.032 25.5765 102.952 25.7087C102.723 26.1492 101.138 27.8406 100.521 28.2987C99.5342 29.0387 98.6973 29.3382 98.204 29.1268C97.7811 28.9418 97.1909 28.3516 97.0059 27.9375C96.6535 27.1446 96.9442 25.9465 97.7547 24.8542ZM102.142 26.4399C102.195 26.3782 102.23 26.3342 102.212 26.3342C102.195 26.3342 102.142 26.3782 102.089 26.4399C102.036 26.4927 102.001 26.5456 102.018 26.5456C102.036 26.5456 102.089 26.4927 102.142 26.4399ZM102.688 25.5854C102.635 25.647 102.635 25.647 102.697 25.6118C102.741 25.5854 102.794 25.5589 102.811 25.5589C102.838 25.5589 102.864 25.5413 102.882 25.5237C102.908 25.5061 102.882 25.4973 102.838 25.5061C102.794 25.5061 102.723 25.5501 102.688 25.5854ZM102.054 26.3165L101.878 26.5192L102.071 26.3342C102.186 26.2373 102.274 26.1756 102.274 26.1932C102.274 26.2196 102.327 26.1932 102.388 26.1404C102.529 26.0082 102.855 25.5942 102.75 25.6823C102.697 25.7175 102.653 25.7351 102.635 25.7175C102.626 25.7087 102.538 25.7704 102.459 25.8673C102.309 26.0346 102.309 26.0346 102.45 25.9113C102.529 25.8408 102.591 25.8056 102.591 25.832C102.591 25.9025 102.3 26.1844 102.265 26.1492C102.256 26.1315 102.159 26.2108 102.054 26.3165ZM97.5432 25.9906C97.5168 26.0082 97.4904 26.0434 97.4904 26.0699C97.4904 26.1492 97.5344 26.1315 97.5697 26.0346C97.5873 25.9906 97.5785 25.9642 97.5432 25.9906ZM97.4375 26.2284C97.4111 26.2725 97.3847 26.3254 97.3847 26.3606C97.3847 26.387 97.4111 26.3782 97.4375 26.3342C97.464 26.2901 97.4904 26.2284 97.4904 26.202C97.4904 26.1668 97.464 26.1844 97.4375 26.2284ZM97.464 26.7306C97.5256 26.528 97.6137 26.2901 97.6401 26.2108C97.6754 26.1315 97.6842 26.0699 97.6578 26.0699C97.6049 26.0699 97.4111 26.6249 97.367 26.9156C97.3494 27.0213 97.3935 26.9332 97.464 26.7306ZM97.7194 26.4223C97.7723 26.3165 97.7899 26.2284 97.7811 26.2284C97.7547 26.2284 97.5961 26.5632 97.5961 26.6337C97.5961 26.6954 97.6401 26.6337 97.7194 26.4223ZM97.9397 25.5325C97.9485 25.5325 98.0718 25.3739 98.204 25.1801C98.3978 24.8894 98.4154 24.863 98.2744 25.0215C98.0894 25.233 97.8868 25.5325 97.9397 25.5325ZM98.0454 25.6911C98.0542 25.6911 98.1599 25.5413 98.2832 25.3563C98.3978 25.1713 98.6092 24.8894 98.7501 24.7308C98.9175 24.537 98.944 24.5018 98.8206 24.6075C98.5475 24.8542 97.9485 25.6911 98.0454 25.6911ZM100.177 25.5237L100.336 25.3475L100.16 25.5061C100.001 25.647 99.9659 25.6911 100.01 25.6911C100.019 25.6911 100.089 25.6118 100.177 25.5237ZM100.442 25.2153C100.494 25.1537 100.53 25.1096 100.512 25.1096C100.494 25.1096 100.442 25.1537 100.389 25.2153C100.336 25.277 100.301 25.3211 100.318 25.3211C100.336 25.3211 100.389 25.277 100.442 25.2153ZM100.688 25.0656C100.75 24.9863 100.75 24.9863 100.671 25.048C100.618 25.092 100.574 25.1273 100.574 25.1449C100.574 25.1889 100.618 25.1537 100.688 25.0656ZM100.679 24.7925C100.653 24.8453 100.635 24.8982 100.653 24.8982C100.662 24.8982 100.706 24.8453 100.732 24.7925C100.768 24.7308 100.776 24.6868 100.768 24.6868C100.75 24.6868 100.715 24.7308 100.679 24.7925ZM100.635 24.1494C100.653 23.9732 100.644 23.9644 100.494 23.982C99.9923 24.0349 98.8735 25.1184 98.4506 25.9554L98.3361 26.1844L98.5916 26.158C98.7325 26.1492 98.9704 26.0787 99.1113 26.0082C99.4725 25.8408 100.23 25.0744 100.45 24.6603C100.538 24.4842 100.627 24.2551 100.635 24.1494Z" fill="#785B06"/>
<path d="M98.0475 22.6871C98.1356 22.6342 98.1003 22.8368 97.977 23.1099C97.4396 24.2463 95.5456 25.8849 94.6029 26.0435C94.4796 26.0611 94.3827 26.0875 94.3915 26.1052C94.4003 26.1228 94.4796 26.2814 94.5765 26.4575C94.6646 26.6337 94.8672 27.1359 95.017 27.5764C95.572 29.1709 95.986 29.9197 96.6027 30.4747C96.8318 30.6773 96.9287 30.739 97.0256 30.7126C97.2194 30.6597 97.1665 30.8095 96.9551 30.9152C96.7172 31.0297 96.3208 31.0297 96.0653 30.9064C95.7834 30.7742 95.2813 30.2721 94.973 29.814C94.6999 29.4087 94.5149 29.0652 93.8189 27.6204C93.5899 27.1447 93.396 26.7571 93.3784 26.7571C93.3256 26.7571 93.0701 27.5411 92.9468 28.0697C92.8851 28.3428 92.8322 28.7656 92.8234 29.0123C92.8146 29.259 92.797 29.4616 92.7706 29.4616C92.6296 29.4616 92.3301 29.1356 92.1891 28.8273C91.9513 28.2899 91.9777 27.7702 92.3477 26.3518C92.5327 25.6383 92.7441 25.0921 93.2815 23.9909C93.8541 22.7928 95.2637 20.1499 95.572 19.6918C96.0037 19.0487 96.3032 18.8373 96.3825 19.128C96.4001 19.2073 96.4265 19.2513 96.4441 19.2425C96.453 19.2249 96.5322 19.2778 96.6027 19.3482C96.6996 19.4628 96.7261 19.5332 96.6996 19.6654C96.682 19.7623 96.1358 20.9163 95.4839 22.2201C94.1449 24.8983 93.8718 25.4621 93.9158 25.5061C93.9687 25.559 94.4268 25.2947 94.9201 24.9511C95.4751 24.5547 96.171 23.7971 96.8406 22.8456C97.2722 22.2378 97.3515 22.1585 97.5013 22.1409C97.6511 22.1232 97.6687 22.1409 97.7039 22.2906C97.7215 22.3787 97.748 22.4492 97.7656 22.4316C97.8008 22.3875 97.9946 22.5725 97.9946 22.6518C97.9946 22.6871 98.0211 22.7047 98.0475 22.6871ZM92.4534 28.0961C92.4622 28.0609 92.4622 27.9992 92.4534 27.964C92.4358 27.9287 92.427 27.9552 92.427 28.0256C92.427 28.1049 92.4358 28.1314 92.4534 28.0961ZM92.5063 27.779C92.5151 27.7349 92.5151 27.6821 92.5063 27.6468C92.4887 27.6028 92.4798 27.638 92.4798 27.7085C92.4798 27.779 92.4887 27.8142 92.5063 27.779ZM95.713 20.8106C95.801 20.652 95.8627 20.5111 95.8539 20.5023C95.8275 20.4759 95.5456 20.9868 95.5544 21.0485C95.5544 21.0749 95.6249 20.9692 95.713 20.8106ZM95.9772 20.3261C96.0037 20.2644 96.0213 20.2204 96.0037 20.2204C95.9949 20.2204 95.9508 20.2644 95.9244 20.3261C95.8891 20.379 95.8803 20.4318 95.8891 20.4318C95.9068 20.4318 95.942 20.379 95.9772 20.3261ZM96.2415 19.8416C96.268 19.7887 96.2856 19.7359 96.268 19.7359C96.2591 19.7359 96.2151 19.7887 96.1887 19.8416C96.1534 19.9032 96.1446 19.9561 96.1534 19.9561C96.171 19.9561 96.2063 19.9032 96.2415 19.8416ZM96.4441 19.4451C96.4265 19.4275 96.4001 19.4628 96.3737 19.5156C96.3472 19.5861 96.356 19.5949 96.4089 19.542C96.4441 19.5068 96.4618 19.4628 96.4441 19.4451ZM95.6072 20.3261C95.572 20.379 95.5544 20.4318 95.572 20.4318C95.5896 20.4318 95.6249 20.379 95.6601 20.3261C95.6865 20.2644 95.7041 20.2204 95.6865 20.2204C95.6689 20.2204 95.6337 20.2644 95.6072 20.3261ZM95.0699 21.3304C94.9289 21.6299 94.8144 21.8678 94.832 21.8678C94.8496 21.8678 94.9818 21.6299 95.1227 21.3304C95.2725 21.0397 95.3782 20.8018 95.3694 20.8018C95.3518 20.8018 95.2196 21.0397 95.0699 21.3304ZM94.4356 22.5549C94.3739 22.6694 94.3387 22.7663 94.3563 22.7663C94.3651 22.7663 94.4268 22.6694 94.4884 22.5549C94.5501 22.4404 94.5853 22.3435 94.5677 22.3435C94.5589 22.3435 94.4972 22.4404 94.4356 22.5549ZM92.841 25.9554C92.8146 25.9994 92.7882 26.0611 92.7882 26.0875C92.7882 26.114 92.8146 26.1052 92.841 26.0611C92.8675 26.0171 92.8939 25.9554 92.8939 25.929C92.8939 25.9025 92.8675 25.9114 92.841 25.9554ZM92.7353 26.2461C92.7353 26.299 92.7529 26.3342 92.7706 26.3166C92.7882 26.299 92.7882 26.2461 92.7706 26.2109C92.7529 26.1668 92.7441 26.1844 92.7353 26.2461ZM92.7001 26.9685C92.8058 26.6337 92.9115 26.2814 92.9468 26.2021C92.9732 26.114 92.9908 26.0347 92.9732 26.0171C92.9291 25.973 92.612 26.9597 92.5503 27.3737C92.5327 27.4795 92.6032 27.3033 92.7001 26.9685ZM92.8939 26.6425C92.9027 26.7306 92.9908 26.5633 92.9996 26.4575C92.9996 26.4311 92.9732 26.4399 92.9468 26.484C92.9203 26.528 92.8939 26.5985 92.8939 26.6425ZM93.0525 26.3254C93.0789 26.2814 93.1053 26.2285 93.1053 26.1933C93.1053 26.1668 93.0789 26.1756 93.0525 26.2197C93.026 26.2637 92.9996 26.3254 92.9996 26.3518C92.9996 26.3871 93.026 26.3694 93.0525 26.3254ZM93.1582 25.1625C93.1318 25.2066 93.1053 25.2594 93.1053 25.2947C93.1053 25.3211 93.1318 25.3123 93.1582 25.2683C93.1846 25.2242 93.211 25.1625 93.211 25.1361C93.211 25.1009 93.1846 25.1185 93.1582 25.1625ZM93.1053 25.6206C93.1141 25.6471 93.167 25.559 93.2287 25.4268C93.2903 25.2947 93.5722 24.7044 93.8629 24.123C94.7615 22.2642 95.9244 20.0706 96.3384 19.4187C96.3913 19.3482 96.4001 19.313 96.3649 19.3306C96.2856 19.3835 95.8715 20.0618 95.5103 20.7578C94.1625 23.3037 93.0965 25.4621 93.1053 25.6206ZM93.3168 25.5149C93.3168 25.5942 93.4048 25.4268 93.7925 24.6163C94.0127 24.1406 94.4796 23.2068 94.8232 22.5461C95.1668 21.8854 95.4399 21.3304 95.4399 21.304C95.4399 21.1718 93.3168 25.374 93.3168 25.5149ZM94.3122 27.4266C94.3299 27.409 94.2065 27.1271 94.0479 26.7923C93.8894 26.4575 93.7308 26.1668 93.6956 26.1492C93.6075 26.0875 93.6251 26.1404 93.7925 26.4047C93.8718 26.5368 94.0215 26.8187 94.1184 27.0478C94.2153 27.268 94.3034 27.4354 94.3122 27.4266ZM94.5149 27.9728C94.5677 28.0521 94.5941 28.0433 94.5589 27.9464C94.5413 27.9023 94.5149 27.8759 94.506 27.8935C94.4884 27.9023 94.4884 27.9375 94.5149 27.9728ZM94.7351 28.0256C94.4179 27.1887 94.0832 26.4311 93.9334 26.2461C93.8806 26.1933 93.9422 26.343 94.0656 26.5897C94.1889 26.8452 94.4356 27.4002 94.6029 27.8406C94.7791 28.2811 95.0522 28.889 95.2108 29.1973C95.4839 29.7347 95.5632 29.9902 95.3341 29.6026C95.1756 29.3383 95.1403 29.3559 95.2901 29.629C95.4046 29.8316 96.0565 30.5804 96.1182 30.5804C96.1358 30.5804 96.0037 30.4218 95.8187 30.228C95.6425 30.043 95.4927 29.858 95.5015 29.8228C95.5015 29.7876 95.5896 29.858 95.713 29.9902L95.9244 30.2368L95.713 29.9373C95.431 29.5585 94.9729 28.6687 94.7351 28.0256ZM97.0872 23.1363C97.0608 23.198 97.0432 23.2421 97.0608 23.2421C97.0784 23.2421 97.1137 23.198 97.1401 23.1363C97.1753 23.0835 97.193 23.0306 97.1753 23.0306C97.1577 23.0306 97.1225 23.0835 97.0872 23.1363ZM96.6644 23.9028L96.3913 24.2287L96.6908 23.9116C96.8582 23.7354 97.1489 23.3654 97.3339 23.0835C97.5189 22.8016 97.6775 22.5461 97.6775 22.5285C97.6775 22.5021 97.5101 22.7311 97.3075 23.0306C97.1049 23.3302 96.8141 23.7178 96.6644 23.9028ZM96.2768 24.2992C96.2239 24.3521 96.2327 24.3609 96.312 24.3344C96.3649 24.308 96.3913 24.2816 96.3737 24.264C96.356 24.2463 96.312 24.264 96.2768 24.2992ZM97.6511 22.8456C97.7039 22.7487 97.7039 22.7223 97.6599 22.784C97.0608 23.6473 96.8318 23.938 96.4089 24.3873L95.9068 24.9159L96.4353 24.3873C96.7349 24.0966 97.1049 23.6649 97.2722 23.4359C97.4396 23.198 97.6158 22.9337 97.6511 22.8456Z" fill="#785B06"/>
<path d="M92.9136 25.9995C92.9929 26.0523 93.0105 26.0259 92.3762 26.9068C91.6362 27.9287 90.2971 29.4176 89.7069 29.858C89.3369 30.1399 89.055 30.1752 88.8083 29.9726C88.7378 29.9109 88.6057 29.814 88.5352 29.7611C88.0859 29.444 88.1212 28.7657 88.6497 27.268C88.8788 26.5985 88.914 26.1052 88.7378 25.9554C88.6762 25.9114 88.544 25.7264 88.4295 25.5502C88.2797 25.3035 88.2357 25.1714 88.2357 24.9864C88.2357 24.3521 89.1078 23.3478 89.6452 23.3478C89.7245 23.3478 89.8655 23.4094 89.9624 23.4887C90.0593 23.568 90.2002 23.6737 90.2619 23.7266C90.3676 23.7971 90.3852 23.8587 90.3852 24.0702C90.3764 24.3961 90.1738 24.7749 89.6893 25.374L89.3457 25.788L89.5836 26.0435C89.9095 26.3871 89.9976 26.5897 89.9976 26.9509C89.9976 27.2856 89.9095 27.5499 89.5483 28.2723C89.284 28.8009 89.055 29.4352 89.099 29.488C89.1166 29.5057 89.3281 29.3999 89.5747 29.259C90.0857 28.9595 90.8521 28.2283 91.3807 27.5323C91.8564 26.9156 92.7021 25.9466 92.7726 25.9466C92.8079 25.9466 92.8695 25.973 92.9136 25.9995ZM89.7774 24.6164C89.7421 24.678 89.7333 24.7309 89.7509 24.7309C89.7597 24.7309 89.8038 24.678 89.8302 24.6164C89.8655 24.5635 89.8743 24.5106 89.8567 24.5106C89.8478 24.5106 89.8126 24.5635 89.7774 24.6164ZM89.5747 25.1625C89.6364 25.0833 89.6364 25.0745 89.5483 25.1449C89.4602 25.2154 89.4338 25.2595 89.4778 25.2595C89.4867 25.2595 89.5307 25.2154 89.5747 25.1625ZM89.4955 25.0392C89.4514 25.0745 89.4074 25.1185 89.4074 25.1273C89.4074 25.1714 89.4514 25.1449 89.5219 25.0568C89.5836 24.9775 89.5836 24.9687 89.4955 25.0392ZM89.4074 25.3299C89.4074 25.2859 89.3017 25.2595 89.2752 25.3035C89.2664 25.3299 89.284 25.3475 89.3281 25.3475C89.3721 25.3475 89.4074 25.3387 89.4074 25.3299ZM89.3545 24.1318C89.3545 24.0966 89.3105 24.1318 89.2576 24.2023C89.1255 24.3609 88.87 24.8454 88.8788 24.9159C88.8788 24.9423 88.9581 24.8102 89.0638 24.6075C89.1607 24.4137 89.2664 24.2375 89.3017 24.2199C89.3281 24.2023 89.3545 24.1671 89.3545 24.1318ZM89.2224 26.9421C89.24 26.9245 89.2488 26.8804 89.2312 26.8452C89.2136 26.8011 89.1959 26.8099 89.1959 26.8716C89.1959 26.9333 89.2047 26.9597 89.2224 26.9421ZM89.1871 27.0654C89.1871 27.0126 89.1695 27.0214 89.1431 27.0918C89.0814 27.2328 89.0814 27.3209 89.1431 27.224C89.1695 27.1799 89.1871 27.1095 89.1871 27.0654ZM88.7819 24.863C88.8171 24.7749 88.9052 24.5987 88.9669 24.4754C89.0374 24.3521 89.0814 24.2464 89.0638 24.2464C89.0197 24.2464 88.7731 24.7133 88.7466 24.863L88.7114 25.0216L88.7819 24.863ZM88.7643 28.0697C88.7378 28.1137 88.7202 28.193 88.7202 28.2371C88.7202 28.3164 88.8083 28.149 88.8171 28.0433C88.8171 28.0168 88.7995 28.0257 88.7643 28.0697ZM88.6409 28.9242C88.6145 29.1004 88.6409 29.0476 88.7378 28.7392C88.7995 28.5014 88.9669 28.0521 89.099 27.7261C89.3193 27.1887 89.4602 26.7306 89.3897 26.8011C89.3721 26.8187 89.3017 26.9949 89.2312 27.1976C89.1519 27.4002 89.0021 27.823 88.8876 28.1226C88.7643 28.4309 88.6586 28.7921 88.6409 28.9242ZM88.7995 28.8449C88.7378 29.1092 88.7995 28.9771 88.9493 28.5366C89.0286 28.3076 89.1783 27.9464 89.2752 27.7261C89.3809 27.5059 89.4602 27.2945 89.4602 27.2592C89.4514 27.1095 88.8964 28.4485 88.7995 28.8449ZM90.6495 28.7657C90.72 28.6864 90.7288 28.6599 90.6671 28.6247C90.6319 28.6071 90.6231 28.6071 90.6407 28.6335C90.6671 28.6599 90.6407 28.7216 90.5967 28.7745C90.5438 28.8273 90.5174 28.8714 90.535 28.8714C90.5438 28.8714 90.5967 28.8273 90.6495 28.7657ZM90.8698 28.4661C90.8786 28.4045 90.8697 28.3957 90.8081 28.4485C90.7728 28.4837 90.7464 28.5366 90.764 28.563C90.8081 28.6247 90.8609 28.5807 90.8698 28.4661ZM91.2926 28.0785C91.3102 28.0521 91.3014 28.0168 91.275 27.9992C91.2486 27.9816 91.2309 28.008 91.2309 28.0521C91.2309 28.1402 91.2486 28.149 91.2926 28.0785ZM91.504 27.8054C91.5481 27.7702 91.5657 27.7173 91.5481 27.6909C91.5305 27.6645 91.4952 27.6645 91.4512 27.7085C91.4071 27.7349 91.3895 27.7878 91.4071 27.8142C91.4248 27.8495 91.4688 27.8407 91.504 27.8054ZM91.7771 27.4795C91.7948 27.4618 91.7683 27.453 91.7243 27.453C91.6802 27.4618 91.6274 27.4795 91.6098 27.4971C91.5921 27.5235 91.6098 27.5323 91.6538 27.5235C91.7067 27.5147 91.7595 27.4971 91.7771 27.4795ZM92.015 27.1887C92.0767 27.1006 92.0767 27.1006 92.0062 27.1535C91.9533 27.1887 91.9093 27.2064 91.8917 27.1976C91.874 27.1799 91.83 27.2064 91.7948 27.2592C91.7243 27.3473 91.7243 27.3473 91.8036 27.2945C91.8476 27.2504 91.9005 27.2328 91.9093 27.2504C91.9269 27.268 91.9709 27.2328 92.015 27.1887ZM92.4907 26.4399C92.5612 26.3518 92.5612 26.3518 92.4731 26.4223C92.4202 26.4576 92.385 26.5016 92.385 26.5104C92.385 26.5545 92.4202 26.528 92.4907 26.4399Z" fill="#785B06"/>
<path d="M88.8249 25.7175C89.0627 25.4973 89.0275 25.5766 88.5077 26.3871C87.7149 27.6116 87.0541 28.4485 86.7018 28.6863C86.4903 28.8273 86.3229 28.7921 86.0499 28.5454C85.7327 28.2723 85.6358 28.0344 85.6358 27.5587V27.1887L85.116 27.7085C84.6139 28.2194 84.2703 28.4573 84.0413 28.4573C83.9091 28.4573 83.6184 28.3163 83.6184 28.2459C83.6184 28.2282 83.5479 28.1754 83.4598 28.1402C83.2396 28.0432 83.037 27.7613 82.9665 27.4354C82.8608 26.898 83.1691 25.9025 83.6801 25.1361C84.2791 24.2375 85.2922 23.5151 85.9618 23.5151C86.3582 23.5151 86.4375 23.5592 86.8427 23.982C87.1775 24.3256 87.2744 24.5018 87.2127 24.6604C87.1863 24.7132 87.2215 24.7837 87.3096 24.8542C87.3889 24.9159 87.4418 25.0128 87.4418 25.092C87.4418 25.1713 87.2832 25.5854 87.0894 26.0082C86.552 27.1887 86.4287 27.5323 86.3846 27.9287C86.367 28.1313 86.3582 28.3075 86.367 28.3252C86.411 28.3604 86.6665 28.1754 86.9572 27.9023C87.107 27.7525 87.5827 27.1623 88.0144 26.5809C88.446 26.0082 88.8161 25.5325 88.8425 25.5325C88.8601 25.5325 88.8337 25.6118 88.7632 25.7087L88.6487 25.8761L88.8249 25.7175ZM86.6929 25.8761C86.6929 25.8497 86.6489 25.9113 86.596 26.0082C86.5344 26.114 86.4903 26.2197 86.4903 26.2549C86.4903 26.2813 86.5344 26.2197 86.596 26.1228C86.6489 26.017 86.6929 25.9113 86.6929 25.8761ZM84.3408 25.2154C84.2527 25.2859 84.1206 25.4797 84.1646 25.4797C84.1734 25.4797 84.2351 25.4004 84.3056 25.3123C84.3848 25.1978 84.4025 25.1625 84.3408 25.2154ZM83.407 27.1535C83.407 27.2151 83.4775 27.0566 83.5567 26.8099C83.636 26.5632 83.8034 26.1668 83.9179 25.9466C84.0413 25.7175 84.1029 25.559 84.0677 25.5854C83.9003 25.7263 83.407 26.9068 83.407 27.1535ZM83.6625 26.8011C83.4863 27.3121 83.5567 27.224 83.8034 26.6337C83.9267 26.3166 84.1117 25.9378 84.2087 25.788C84.3056 25.6294 84.4553 25.4092 84.5434 25.2947C84.6579 25.1449 84.6668 25.1097 84.5875 25.189C84.3232 25.4092 83.8651 26.2197 83.6625 26.8011ZM85.6975 26.5016C85.7591 26.4223 85.7591 26.4135 85.6798 26.484C85.627 26.528 85.5829 26.5632 85.5829 26.5809C85.5829 26.6249 85.627 26.5897 85.6975 26.5016ZM84.4553 27.4001C85.0368 26.9332 86.6489 24.8278 86.6489 24.5459C86.6489 24.4313 86.4551 24.4754 86.0322 24.6868C85.6006 24.907 85.1337 25.3387 84.7901 25.8232C84.4465 26.3166 84.006 27.2328 83.9532 27.5499L83.9179 27.7878L84.0765 27.6909C84.1558 27.638 84.332 27.5059 84.4553 27.4001ZM86.041 27.2768C86.0587 27.2592 86.0587 27.2063 86.041 27.1711C86.0322 27.1271 86.0146 27.1447 86.0146 27.2063C86.0146 27.2592 86.0234 27.2944 86.041 27.2768ZM86.0763 27.0213C86.0939 27.0037 86.1644 26.8363 86.2437 26.6337C86.3934 26.2461 86.3758 26.1492 86.226 26.5016C86.1291 26.7394 86.0322 27.0654 86.0763 27.0213ZM86.2789 26.7835C86.2789 26.8099 86.2965 26.8011 86.3318 26.7571C86.3582 26.713 86.3758 26.6513 86.3758 26.6249C86.3758 26.5985 86.3582 26.6073 86.3318 26.6513C86.2965 26.6954 86.2789 26.7571 86.2789 26.7835ZM87.1422 28.0961C87.1599 28.0697 87.1422 28.0521 87.0982 28.0521C87.0541 28.0521 87.0365 28.0697 87.0541 28.0961C87.0629 28.1137 87.0894 28.1402 87.0982 28.1402C87.107 28.1402 87.1334 28.1137 87.1422 28.0961ZM87.2391 27.8847C87.3008 27.8054 87.3008 27.7966 87.2215 27.8671C87.1687 27.9023 87.1246 27.9463 87.1246 27.9552C87.1246 27.9992 87.1687 27.9728 87.2391 27.8847ZM88.3491 26.343C88.4196 26.2637 88.4196 26.2549 88.3315 26.3254C88.2434 26.3959 88.217 26.4399 88.261 26.4399C88.2699 26.4399 88.3139 26.3959 88.3491 26.343ZM88.6134 25.9818C88.6839 25.8849 88.6839 25.8849 88.5958 25.9554C88.5518 25.9906 88.5077 26.0523 88.5077 26.0787C88.5077 26.114 88.5165 26.1228 88.5165 26.114C88.5253 26.1051 88.5694 26.0435 88.6134 25.9818Z" fill="#785B06"/>
<path d="M83.5809 20.5728C83.9597 20.9428 83.9685 20.9604 83.9773 21.2335C83.995 21.7268 83.6162 22.6694 82.6471 24.5899C81.6957 26.4752 81.079 27.964 80.8323 28.9859C80.7883 29.1709 80.7619 29.5145 80.7707 29.7787C80.7883 30.3954 80.7971 30.4571 80.8764 30.3778C80.9733 30.2985 81.0261 30.4747 80.9469 30.6068C80.8764 30.7478 80.6826 30.7654 80.5857 30.6509C80.5504 30.598 80.4888 30.5628 80.4535 30.5628C80.3038 30.5716 79.9778 30.0695 79.8457 29.6554C79.7311 29.3118 79.6695 28.6599 79.7047 28.2371C79.7576 27.6821 80.0659 26.6337 80.3654 25.9994C80.4976 25.7263 80.7002 25.3035 80.8059 25.0744C81.0702 24.5282 81.2376 24.1935 81.9247 22.9425C82.5942 21.7092 82.7 21.5066 82.6647 21.4625C82.6471 21.4449 82.3035 21.7973 81.9071 22.2466C81.1407 23.1011 79.9338 24.7397 79.044 26.1404C78.2776 27.3385 78.0749 27.6204 77.8899 27.7085C77.749 27.7702 77.7226 27.7702 77.5992 27.6556C77.5288 27.5852 77.4054 27.5059 77.3349 27.4706C76.9826 27.3033 76.9385 26.7571 77.194 25.7792C77.4142 24.9511 77.6609 24.3521 78.2599 23.1716C78.8942 21.903 78.9735 21.7356 78.9383 21.7004C78.8942 21.6475 78.1542 22.4668 77.7049 23.0747C77.0883 23.8852 76.5509 24.7573 75.6083 26.4752C74.4278 28.6071 74.0666 29.2149 73.9168 29.3295C73.7847 29.4264 73.7759 29.4264 73.6173 29.3118C73.5292 29.2502 73.4235 29.1973 73.3883 29.1973C73.3442 29.1973 73.2473 29.1356 73.1768 29.0564C73.0623 28.9418 73.0359 28.8537 73.0095 28.4573C72.9126 27.1535 73.5645 24.9247 74.7802 22.3699C75.5026 20.8723 76.3659 19.6125 76.7535 19.4892C76.9473 19.4363 77.1059 19.4539 77.1059 19.5509C77.1147 19.6301 77.3085 19.8063 77.3966 19.8063C77.4319 19.7975 77.4847 19.8416 77.5288 19.8944C77.6345 20.0354 77.5552 20.2468 77.1059 20.9956C76.1809 22.5813 75.1237 24.7573 74.6128 26.1228C74.3397 26.854 74.0402 27.8494 74.0754 27.9375C74.1107 28.0256 74.8771 26.713 75.6788 25.1978C76.7271 23.2156 77.5111 22.0351 78.5154 20.8987C79.2378 20.0618 79.5902 19.8944 79.8369 20.238C79.8985 20.3261 80.0307 20.4406 80.1188 20.4847C80.7002 20.7754 80.5064 21.5859 79.2378 24.1671C78.815 25.0304 78.3745 25.9994 78.4009 26.0171C78.4097 26.0259 78.8414 25.4092 79.3523 24.6428C81.3433 21.7004 82.5854 20.2116 83.0788 20.1939C83.1404 20.1939 83.3519 20.3525 83.5809 20.5728ZM76.4276 20.6697C76.3747 20.7137 76.3395 20.7666 76.3395 20.7754C76.3395 20.8194 76.3835 20.793 76.4452 20.6961C76.5157 20.5992 76.5068 20.5992 76.4276 20.6697ZM73.353 27.638C73.353 27.6997 73.3706 27.7349 73.3883 27.7085C73.4059 27.6909 73.4059 27.6468 73.3883 27.6028C73.3706 27.5587 73.353 27.5764 73.353 27.638ZM73.5733 28.2459C73.5821 28.2018 73.5821 28.1402 73.5645 28.1049C73.5468 28.0697 73.538 28.0961 73.538 28.1754C73.538 28.2547 73.5556 28.2811 73.5733 28.2459ZM73.5645 27.5235C73.9433 25.7704 74.8066 23.6209 76.0664 21.3392C76.1897 21.119 76.2426 21.0044 76.1809 21.0749C75.9078 21.4361 74.9123 23.4182 74.463 24.5282C73.8728 25.9554 73.4323 27.5323 73.4059 28.2811L73.3883 28.6599L73.4323 28.3252C73.4499 28.1314 73.5116 27.779 73.5645 27.5235ZM73.7583 27.3473C73.8464 26.9773 74.0402 26.3342 74.1811 25.9202C74.7537 24.2552 76.0135 21.674 76.9121 20.3525C77.0354 20.1675 77.0971 20.053 77.0354 20.1147C76.8945 20.2468 76.2866 21.1982 75.9783 21.7709C75.2823 23.0482 74.5511 24.6604 74.1459 25.8497C73.908 26.528 73.5733 27.779 73.5821 27.9375C73.5821 27.9904 73.6614 27.7261 73.7583 27.3473ZM75.3792 26.528C75.4233 26.4311 75.4233 26.4135 75.3704 26.4575C75.3176 26.484 75.3087 26.4752 75.3352 26.4047C75.3792 26.2725 75.3264 26.2902 75.2559 26.4311C75.2118 26.528 75.2207 26.5456 75.2735 26.5104C75.3176 26.4752 75.3264 26.4928 75.3087 26.5544C75.2559 26.6954 75.3087 26.6778 75.3792 26.528ZM75.5818 26.1492C75.6435 26.0347 75.6523 25.973 75.6171 26.0083C75.573 26.0435 75.5202 26.0611 75.5026 26.0347C75.4761 26.0171 75.4761 26.0435 75.5026 26.1052C75.529 26.1756 75.529 26.2021 75.4849 26.1756C75.4497 26.158 75.4057 26.1668 75.388 26.2021C75.3616 26.2461 75.3704 26.2549 75.4233 26.2197C75.4673 26.1844 75.4849 26.2021 75.4585 26.2725C75.4057 26.4311 75.4585 26.3783 75.5818 26.1492ZM75.6259 25.8497C75.6523 25.788 75.6699 25.7352 75.6523 25.7352C75.6347 25.7352 75.5995 25.788 75.573 25.8497C75.5378 25.9113 75.529 25.9642 75.5466 25.9642C75.5554 25.9642 75.5907 25.9113 75.6259 25.8497ZM75.8285 25.6823C75.8638 25.6118 75.8638 25.5766 75.8109 25.5766C75.7757 25.5854 75.7492 25.6294 75.7492 25.6823C75.7492 25.744 75.758 25.788 75.7668 25.788C75.7757 25.788 75.8021 25.744 75.8285 25.6823ZM76.3571 24.7221L76.4011 24.6075L76.3218 24.7221C76.2778 24.7925 76.2161 24.8454 76.1897 24.8454C76.1633 24.8454 76.128 24.8718 76.1016 24.8982C76.0752 24.9247 76.084 24.9335 76.128 24.8982C76.1897 24.863 76.1985 24.8806 76.1721 24.9599C76.1457 25.0656 76.1457 25.0656 76.2249 24.9599C76.269 24.8894 76.3307 24.7925 76.3571 24.7221ZM76.4892 24.493C76.5068 24.4666 76.498 24.4666 76.454 24.493C76.4011 24.5371 76.3835 24.5194 76.4099 24.449C76.454 24.3168 76.4099 24.3344 76.3395 24.4666C76.3042 24.5547 76.3042 24.5723 76.3659 24.5635C76.4099 24.5547 76.4628 24.5282 76.4892 24.493ZM76.9209 23.7882C76.9826 23.7001 76.9826 23.7001 76.9033 23.7706C76.8504 23.8147 76.8064 23.8587 76.8064 23.8675C76.8064 23.9204 76.8504 23.8852 76.9209 23.7882ZM77.1235 23.2773C77.1852 23.1804 77.1852 23.1804 77.0971 23.2509C77.053 23.2949 77.009 23.3478 77.009 23.3566C77.009 23.4006 77.053 23.3742 77.1235 23.2773ZM79.643 21.1806C79.6166 21.1982 79.599 21.2335 79.599 21.2687C79.599 21.348 79.6342 21.3304 79.6695 21.2335C79.6871 21.1806 79.6783 21.1542 79.643 21.1806ZM79.5461 21.4361C79.5197 21.4801 79.5021 21.5418 79.5021 21.577C79.5021 21.6035 79.5197 21.5947 79.555 21.5506C79.5814 21.4978 79.599 21.4361 79.599 21.4009C79.599 21.3744 79.5726 21.3832 79.5461 21.4361ZM77.7666 25.2771C77.7402 25.3211 77.7226 25.3916 77.7226 25.418C77.7226 25.4533 77.749 25.4356 77.7754 25.3916C77.8019 25.3387 77.8195 25.2771 77.8195 25.2506C77.8195 25.2154 77.8019 25.233 77.7666 25.2771ZM77.6697 25.559C77.6433 25.6118 77.6257 25.6735 77.6257 25.7087C77.6257 25.7352 77.6433 25.7263 77.6785 25.6735C77.7049 25.6294 77.7226 25.559 77.7226 25.5325C77.7226 25.4973 77.6961 25.5149 77.6697 25.559ZM77.4142 26.8452C77.3526 27.1623 77.4407 26.9509 77.6521 26.2373C77.934 25.3211 78.1807 24.7397 78.718 23.6737C79.2642 22.5901 79.8016 21.392 79.8369 21.1718C79.8633 21.0044 79.8633 21.0044 79.8016 21.1454C79.3876 22.1497 79.1409 22.6871 78.7621 23.4359C78.0397 24.8806 77.564 26.0787 77.4142 26.8452ZM78.2247 25.1625C78.4097 24.7397 78.7092 24.0878 78.903 23.7001C79.2907 22.9249 79.828 21.7444 79.828 21.674C79.8192 21.6475 79.6695 21.9559 79.4757 22.3699C79.2907 22.7751 78.9823 23.4094 78.7973 23.7794C78.6123 24.1406 78.3745 24.6428 78.2599 24.8982C78.0221 25.4356 77.5904 26.6425 77.5992 26.7571C77.608 26.8011 77.6785 26.6337 77.7578 26.3783C77.8371 26.1316 78.0485 25.5766 78.2247 25.1625ZM80.5681 23.3213C80.5152 23.3654 80.4711 23.4094 80.4711 23.4182C80.4711 23.4623 80.5152 23.4359 80.5857 23.339C80.6473 23.2509 80.6473 23.2421 80.5681 23.3213ZM79.088 25.6999C79.1497 25.6118 79.1497 25.6118 79.0704 25.6823C79.0176 25.7263 78.9735 25.7704 78.9735 25.7792C78.9735 25.8321 79.0176 25.7968 79.088 25.6999ZM79.1321 25.418C79.2026 25.3299 79.1938 25.3211 79.1145 25.4004C79.0616 25.4444 79.0176 25.4885 79.0176 25.4973C79.0264 25.5502 79.0704 25.5149 79.1321 25.418ZM79.3964 25.2418C79.4669 25.1449 79.458 25.1449 79.3788 25.2242C79.3259 25.2683 79.2907 25.3123 79.2907 25.3211C79.2907 25.3652 79.3347 25.3387 79.3964 25.2418ZM79.6254 24.863C79.6519 24.8894 79.6519 24.8718 79.6254 24.8366C79.5902 24.7749 79.5638 24.7837 79.4757 24.8718C79.4228 24.9335 79.3876 25.0216 79.414 25.048C79.458 25.1273 79.4669 25.1273 79.555 25.0128C79.6166 24.9159 79.6166 24.9159 79.5373 24.9863C79.4845 25.0304 79.4404 25.048 79.4404 25.0128C79.4404 24.9247 79.5726 24.819 79.6254 24.863ZM80.0395 24.2992C80.0923 24.2375 80.1188 24.1847 80.11 24.1847C80.0923 24.1847 80.0395 24.2375 79.9866 24.308C79.9338 24.3697 79.9073 24.4225 79.9161 24.4225C79.9338 24.4225 79.9866 24.3697 80.0395 24.2992ZM80.1892 23.9028C80.2421 23.8411 80.2685 23.7882 80.2597 23.7882C80.2421 23.7882 80.1892 23.8411 80.1364 23.9028C80.0835 23.9644 80.0571 24.0173 80.0659 24.0173C80.0835 24.0173 80.1364 23.9644 80.1892 23.9028ZM80.4271 23.753C80.4976 23.6473 80.4976 23.6473 80.4183 23.7178C80.3654 23.7618 80.3214 23.8235 80.3214 23.8587C80.3214 23.894 80.3302 23.9028 80.339 23.894C80.3478 23.8763 80.3919 23.8147 80.4271 23.753ZM80.6385 23.4535L80.7707 23.2949L80.6297 23.4182C80.5592 23.4975 80.48 23.5416 80.4711 23.524C80.4535 23.5063 80.3919 23.5592 80.339 23.6297C80.2421 23.7618 80.2421 23.7618 80.3478 23.6561C80.4095 23.6032 80.4711 23.568 80.4888 23.5856C80.5064 23.5944 80.5681 23.5416 80.6385 23.4535ZM80.9909 22.7223C80.9909 22.7751 81.035 22.7399 81.1054 22.643C81.1671 22.5549 81.1671 22.5549 81.0878 22.6254C81.035 22.6694 80.9909 22.7135 80.9909 22.7223ZM81.2111 22.7135C81.2728 22.6342 81.3169 22.5637 81.3081 22.5637C81.2904 22.5637 81.22 22.6342 81.1583 22.7135C81.0878 22.7928 81.0438 22.8544 81.0614 22.8544C81.0702 22.8544 81.1407 22.7928 81.2111 22.7135ZM81.5283 22.2906C81.59 22.2025 81.59 22.2025 81.5107 22.273C81.4578 22.317 81.4138 22.3611 81.4138 22.3699C81.4138 22.4228 81.4578 22.3875 81.5283 22.2906ZM81.5459 22.1056C81.5988 22.044 81.6252 21.9911 81.6076 21.9911C81.5988 21.9911 81.5371 22.044 81.4842 22.1056C81.4402 22.1761 81.405 22.229 81.4226 22.229C81.4402 22.2201 81.4931 22.1761 81.5459 22.1056ZM81.9952 21.5418C82.0569 21.4537 82.0569 21.4537 81.9688 21.5242C81.9159 21.5682 81.8807 21.6123 81.8807 21.6211C81.8807 21.674 81.9247 21.6387 81.9952 21.5418ZM83.0347 21.7532C82.9114 22.0175 82.8321 22.2378 82.8409 22.2378C82.8585 22.2378 82.9643 22.0263 83.0788 21.7709C83.1933 21.5154 83.2726 21.2951 83.2638 21.2863C83.255 21.2775 83.1493 21.489 83.0347 21.7532ZM82.7176 22.414C82.6823 22.4756 82.6735 22.5285 82.6912 22.5285C82.7 22.5285 82.7352 22.4756 82.7704 22.414C82.7969 22.3435 82.8145 22.2994 82.7969 22.2994C82.7793 22.2994 82.744 22.3523 82.7176 22.414ZM82.515 22.8104C82.4797 22.8809 82.4709 22.9249 82.4797 22.9249C82.4973 22.9249 82.5326 22.8721 82.5678 22.8104C82.5942 22.7487 82.6031 22.6959 82.5942 22.6959C82.5766 22.6959 82.5414 22.7487 82.515 22.8104ZM82.2507 23.3037C82.2242 23.3213 82.2066 23.3654 82.2066 23.3918C82.2066 23.4711 82.2419 23.4535 82.2771 23.3566C82.2947 23.3037 82.2859 23.2861 82.2507 23.3037ZM80.0835 28.3868C80.0923 28.4221 80.1628 28.2018 80.2509 27.8847C80.339 27.5764 80.4271 27.268 80.4535 27.1975C80.48 27.1094 80.48 27.1006 80.4271 27.1711C80.3654 27.2768 80.0747 28.2811 80.0835 28.3868ZM80.4447 28.4573C80.4623 28.4397 80.4623 28.3868 80.4447 28.3516C80.4271 28.3075 80.4095 28.3164 80.4095 28.3868C80.4095 28.4485 80.4271 28.4749 80.4447 28.4573ZM82.2859 24.0966C82.8497 23.0306 83.4047 21.8766 83.3959 21.7885C83.3959 21.762 83.2814 21.9823 83.1404 22.2818C82.9907 22.5813 82.6119 23.339 82.2859 23.9556C81.5371 25.3828 80.8059 27.0037 80.6297 27.6204C80.5504 27.8847 80.48 28.1402 80.4623 28.193C80.4535 28.2371 80.4535 28.2635 80.4711 28.2459C80.4888 28.2283 80.6033 27.9111 80.7266 27.5323C80.9997 26.7394 81.5635 25.4973 82.2859 24.0966ZM82.2683 23.7266C82.9202 22.5109 83.44 21.3656 83.4312 21.207C83.4223 21.1278 83.4223 21.1278 83.3959 21.207C83.299 21.5066 82.7969 22.5725 82.374 23.383C80.9733 26.0347 80.4007 27.3737 80.2245 28.4045C80.1452 28.889 80.2157 28.8009 80.3214 28.2811C80.5416 27.268 81.1759 25.7792 82.2683 23.7266Z" fill="#785B06"/>
</svg>
